<svg width="261" height="81" viewBox="0 0 261 81" fill="none" xmlns="http://www.w3.org/2000/svg">
<path d="M15.5708 24.7833C17.0847 24.7833 18.312 23.556 18.312 22.0421C18.312 20.5282 17.0847 19.3009 15.5708 19.3009C14.0569 19.3009 12.8296 20.5282 12.8296 22.0421C12.8296 23.556 14.0569 24.7833 15.5708 24.7833Z" fill="#FDB735"/>
<path d="M19.1882 18.4019C18.2221 17.4357 16.9189 16.8965 15.5483 16.8965C14.1777 16.8965 12.897 17.4357 11.9083 18.4019L9.43677 15.9303C11.0545 14.3126 13.234 13.4138 15.5258 13.4138C17.8176 13.4138 19.9971 14.3126 21.6149 15.9303L19.1433 18.4019H19.1882Z" fill="#EEE7E1"/>
<path d="M23.9066 13.6837C19.3005 9.07754 11.8184 9.07754 7.23475 13.6837L4.76318 11.2121C10.7174 5.25784 20.424 5.25784 26.3782 11.2121L23.9066 13.6837Z" fill="#FDB735"/>
<path d="M28.6702 8.92011C25.1651 5.41498 20.514 3.48266 15.5709 3.48266C10.6278 3.48266 5.9767 5.41498 2.47157 8.92011L0 6.44855C4.15673 2.29182 9.68406 0 15.5709 0C21.4577 0 26.985 2.29182 31.1418 6.44855L28.6702 8.92011Z" fill="#EEE7E1"/>
<path d="M26.7378 78.5509C26.7378 78.843 26.5356 79.3598 26.0188 79.6294C24.3561 80.4383 20.3117 81 15.5933 81C10.8748 81 6.65069 80.4158 5.07788 79.562C4.89812 79.4721 4.76332 79.3822 4.65098 79.2699C4.65098 79.2699 4.60604 79.225 4.58358 79.225C4.51617 79.18 4.47122 79.1126 4.42628 79.0452C4.42628 79.0003 4.40382 78.9778 4.38135 78.9329C4.38135 78.8879 4.38135 78.843 4.38135 78.7981V43.7467H26.7603V78.5284L26.7378 78.5509Z" fill="#FDB735"/>
<path d="M40.6682 78.3938V34.9391H60.5306C64.5076 34.9391 67.9229 35.5907 70.7989 36.8714C73.6749 38.1521 75.8993 40.017 77.4721 42.4212C79.0449 44.8478 79.8314 47.7014 79.8314 51.0268C79.8314 54.3521 79.0449 57.1383 77.4721 59.5424C75.8993 61.9466 73.6749 63.7891 70.7989 65.0922C67.9229 66.3954 64.4851 67.047 60.5306 67.047H47.4987L52.9587 61.6995V78.3938H40.6682ZM52.9587 63.0026L47.4987 57.363H59.7892C62.3506 57.363 64.2605 56.8012 65.5412 55.6778C66.7994 54.5544 67.4286 53.004 67.4286 51.0268C67.4286 49.0495 66.7994 47.4318 65.5412 46.3083C64.2829 45.1849 62.3731 44.6232 59.7892 44.6232H47.4987L52.9587 38.9835V63.0026Z" fill="#EEE7E1"/>
<path d="M91.785 41.0057C89.628 41.0057 87.8979 40.399 86.5722 39.2082C85.2466 38.0173 84.595 36.5119 84.595 34.7369C84.595 32.9618 85.2466 31.4564 86.5722 30.2656C87.8979 29.0747 89.628 28.4681 91.785 28.4681C93.942 28.4681 95.6721 29.0298 96.9978 30.1757C98.3234 31.3216 98.975 32.7821 98.975 34.5571C98.975 36.3322 98.3234 37.9724 97.0202 39.1857C95.717 40.399 93.9645 41.0282 91.7625 41.0282L91.785 41.0057ZM85.8757 78.3938V44.7355H97.6718V78.3938H85.8757Z" fill="#EEE7E1"/>
<path d="M105.311 78.3937V32.3326H117.107V78.3937H105.311Z" fill="#EEE7E1"/>
<path d="M124.747 78.3937V32.3326H136.543V78.3937H124.747Z" fill="#EEE7E1"/>
<path d="M166.404 79.2701C162.966 79.2701 159.798 78.7308 156.877 77.6298C153.956 76.5289 151.44 74.9785 149.305 72.9339C147.171 70.9117 145.508 68.5075 144.317 65.7663C143.126 63.0251 142.52 59.9918 142.52 56.6664C142.52 53.3411 143.126 50.3302 144.317 47.5666C145.508 44.8029 147.193 42.4212 149.305 40.399C151.44 38.3768 153.956 36.804 156.877 35.703C159.798 34.6021 162.966 34.0628 166.404 34.0628C170.426 34.0628 174.021 34.7593 177.166 36.1749C180.335 37.5904 182.963 39.6126 185.075 42.2639L177.256 49.3416C175.841 47.6789 174.313 46.4207 172.628 45.5444C170.943 44.6681 169.078 44.2412 167.011 44.2412C165.235 44.2412 163.595 44.5333 162.112 45.1175C160.629 45.7017 159.349 46.533 158.293 47.634C157.237 48.7349 156.405 50.0381 155.799 51.566C155.192 53.0939 154.9 54.8015 154.9 56.6664C154.9 58.5314 155.192 60.2165 155.799 61.7669C156.405 63.2947 157.237 64.6204 158.293 65.6989C159.349 66.7999 160.629 67.6312 162.112 68.2154C163.595 68.7996 165.235 69.0917 167.011 69.0917C169.078 69.0917 170.943 68.6648 172.628 67.7885C174.313 66.9122 175.841 65.654 177.256 63.9913L185.075 71.0689C182.963 73.6753 180.335 75.6975 177.166 77.1131C173.998 78.5286 170.403 79.2476 166.404 79.2476V79.2701Z" fill="#FDB735"/>
<path d="M200.489 78.9555C197.793 78.9555 195.523 78.5061 193.658 77.5849C191.794 76.6637 190.378 75.4279 189.412 73.8551C188.446 72.2822 187.951 70.5297 187.951 68.5749C187.951 66.5078 188.468 64.7103 189.524 63.2049C190.58 61.6994 192.198 60.5311 194.4 59.7222C196.602 58.9133 199.433 58.5089 202.916 58.5089H210.87V64.6653H204.533C202.624 64.6653 201.298 64.9799 200.534 65.5866C199.77 66.2157 199.388 67.047 199.388 68.0806C199.388 69.1141 199.77 69.9455 200.579 70.5746C201.365 71.2037 202.444 71.4959 203.814 71.4959C205.095 71.4959 206.263 71.1813 207.32 70.5297C208.376 69.8781 209.162 68.9119 209.656 67.5863L211.274 71.9228C210.645 74.2371 209.432 75.9896 207.634 77.1805C205.837 78.3713 203.455 78.9555 200.534 78.9555H200.489ZM210.42 78.3938V72.125L209.611 70.5746V59.0257C209.611 57.1607 209.05 55.7227 207.904 54.7116C206.758 53.7005 204.96 53.1838 202.466 53.1838C200.848 53.1838 199.208 53.4534 197.568 53.9702C195.905 54.487 194.512 55.206 193.344 56.1047L189.367 48.1058C191.277 46.87 193.569 45.9039 196.22 45.2073C198.894 44.5333 201.545 44.1738 204.196 44.1738C209.656 44.1738 213.903 45.432 216.891 47.9261C219.902 50.4201 221.385 54.3521 221.385 59.6997V78.3938H210.398H210.42Z" fill="#FDB735"/>
<path d="M228.867 78.3937V32.3326H240.663V78.3937H228.867Z" fill="#FDB735"/>
<path d="M248.303 78.3937V32.3326H260.099V78.3937H248.303Z" fill="#FDB735"/>
<path d="M26.7378 43.2075V45.5892C24.109 47.4316 19.1658 48.6674 13.4812 48.6674C10.066 48.6674 6.89786 48.218 4.35889 47.4541V43.2075H26.7378Z" fill="#EB9E2D"/>
<path d="M28.6697 32.9618C28.6697 33.0741 28.6697 33.1865 28.6697 33.2988C28.6697 33.3438 28.6697 33.3887 28.6697 33.4112C28.6697 33.4336 28.6697 33.4786 28.6697 33.501C28.5349 34.265 28.4226 35.0289 28.3552 35.7929C28.3552 35.8828 28.3552 35.9502 28.3552 36.04C28.3552 36.1299 28.3552 36.2198 28.3552 36.3096C28.3552 36.3995 28.3552 36.4894 28.3552 36.6018C28.3327 37.0736 28.3102 37.5454 28.3102 38.0173V38.1746C28.3102 38.3318 28.3102 38.5116 28.3102 38.6689C28.3102 38.7588 28.3102 38.8486 28.3102 38.9385C28.3102 39.0733 28.3102 39.2081 28.3102 39.343C28.3102 39.4328 28.3102 39.5227 28.3102 39.6126C28.3102 39.7024 28.3102 39.7923 28.3102 39.8822C28.3102 39.9945 28.3102 40.1069 28.3102 40.2192C28.3552 40.7585 28.4001 41.2977 28.49 41.8145C28.49 41.837 28.49 41.8595 28.49 41.9044C28.49 41.9269 28.49 41.9718 28.49 42.0167C28.49 42.1066 28.49 42.174 28.5125 42.2639C28.5125 42.2639 28.5125 42.3088 28.5125 42.3313C28.5125 42.4661 28.5349 42.5785 28.5349 42.7133C28.5349 42.7807 28.5349 42.8481 28.5349 42.893C28.5349 42.9829 28.5349 43.0728 28.5125 43.1402C28.5125 43.1851 28.5125 43.23 28.49 43.2975C28.4001 43.657 28.2428 44.0165 27.9957 44.3535C27.9957 44.3535 27.9957 44.3535 27.9957 44.376C27.9957 44.3984 27.9508 44.4209 27.9283 44.4658C27.9283 44.4658 27.9283 44.4883 27.9058 44.5108C27.8833 44.5332 27.8609 44.5557 27.8384 44.6006C27.5688 44.9152 27.2318 45.2073 26.8048 45.4769C26.7599 45.4769 26.7374 45.5219 26.6925 45.5443C26.6026 45.5893 26.5127 45.6567 26.4229 45.7016C26.3779 45.7241 26.3105 45.769 26.2431 45.7915C25.9735 45.9263 25.7039 46.0611 25.3893 46.1959C25.3444 46.1959 25.2994 46.2409 25.2545 46.2409C24.9624 46.3532 24.6703 46.4656 24.3333 46.5779C24.2209 46.6228 24.0861 46.6453 23.9513 46.6902C23.9513 46.6902 23.9513 46.6902 23.9064 46.6902C23.794 46.7127 23.6592 46.7577 23.5469 46.8026C23.0525 46.9374 22.5133 47.0497 21.9516 47.1621C21.9066 47.1621 21.8617 47.1621 21.8168 47.1846C21.7943 47.1846 21.7494 47.1846 21.7269 47.1846C21.7044 47.1846 21.6595 47.1846 21.637 47.1846C21.3449 47.2295 21.0753 47.2744 20.7832 47.3194C20.7158 47.3194 20.6259 47.3194 20.5585 47.3418C20.5585 47.3418 20.536 47.3418 20.5136 47.3418C20.4237 47.3418 20.3338 47.3419 20.2439 47.3643C20.0642 47.3643 19.8844 47.4093 19.6822 47.4093C19.6148 47.4093 19.5474 47.4093 19.48 47.4093C19.4351 47.4093 19.3677 47.4093 19.3227 47.4093C19.2328 47.4093 19.1654 47.4093 19.0756 47.4093C18.6936 47.4542 18.3116 47.4767 17.9296 47.4767C17.8398 47.4767 17.7724 47.4767 17.6825 47.4767C17.5701 47.4767 17.4803 47.4767 17.3679 47.4767H17.3455C17.3455 47.4767 17.2107 47.4767 17.1657 47.4767H17.0758C16.8961 47.4767 16.6939 47.4767 16.4916 47.4767H15.7502C15.6154 47.4767 15.4581 47.4767 15.3233 47.4767C15.2559 47.4767 15.166 47.4767 15.0986 47.4767C15.0986 47.4767 14.9638 47.4767 14.8739 47.4767C14.8739 47.4767 14.7166 47.4767 14.6492 47.4767C14.6492 47.4767 14.5144 47.4767 14.447 47.4767C14.3571 47.4767 14.2672 47.4767 14.1774 47.4767C13.9302 47.4767 13.683 47.4542 13.4359 47.4317C13.346 47.4317 13.2337 47.4317 13.1438 47.4317C13.0764 47.4317 13.009 47.4317 12.9191 47.4317C12.9191 47.4317 12.7843 47.4317 12.7394 47.4317C12.5371 47.4317 12.3574 47.4093 12.1776 47.3643H12.1552C12.1552 47.3643 11.9979 47.3643 11.9305 47.3418C11.9305 47.3418 11.9305 47.3418 11.908 47.3418C11.8631 47.3418 11.7957 47.3418 11.7283 47.3418C11.6384 47.3418 11.571 47.3418 11.4811 47.3194C11.234 47.2969 10.9868 47.252 10.7396 47.207C10.7396 47.207 10.7396 47.207 10.7172 47.207C10.6722 47.207 10.6048 47.207 10.5599 47.1846C10.5599 47.1846 10.5599 47.1846 10.5374 47.1846C10.3801 47.1621 10.2228 47.1396 10.0656 47.0947C9.95322 47.0947 9.84087 47.0498 9.72853 47.0273C9.54878 47.0048 9.36903 46.9599 9.18928 46.9149C9.18928 46.9149 9.14435 46.9149 9.12188 46.9149C9.07694 46.9149 9.032 46.8925 8.9646 46.87C8.94213 46.87 8.91966 46.87 8.87472 46.87C8.87472 46.87 8.82979 46.87 8.80732 46.87C8.78485 46.87 8.76238 46.87 8.71744 46.87C8.71744 46.87 8.71743 46.87 8.69497 46.87C8.65003 46.87 8.6051 46.87 8.56016 46.8475C8.56016 46.8475 8.56015 46.8475 8.53768 46.8475C7.97596 46.6902 7.43671 46.533 6.9424 46.3757C6.9424 46.3757 6.9424 46.3757 6.91993 46.3757C6.91993 46.3757 6.91994 46.3757 6.89747 46.3757C6.875 46.3757 6.83006 46.3532 6.80759 46.3307C6.78512 46.3307 6.76266 46.3308 6.74019 46.3083C6.42563 46.1959 6.15599 46.0836 5.88636 45.9488C5.79649 45.9038 5.70661 45.8589 5.63921 45.8364C5.5718 45.814 5.52687 45.769 5.45947 45.7466C5.437 45.7466 5.39206 45.7241 5.36959 45.7016C5.32465 45.7016 5.2797 45.6567 5.23477 45.6342C5.14489 45.5893 5.05503 45.5219 4.96515 45.4769C4.96515 45.4769 4.9202 45.4769 4.9202 45.4545C4.87527 45.4095 4.80786 45.3871 4.76292 45.3421C4.53823 45.1848 4.33602 45.0276 4.1338 44.8703C4.1338 44.8703 4.11134 44.8703 4.08887 44.8703C4.08887 44.8703 4.04393 44.8253 4.02147 44.8029C4.02147 44.8029 4.02146 44.8029 3.99899 44.7804C3.75183 44.5557 3.54962 44.3086 3.36987 44.0389C3.3474 43.994 3.30246 43.9266 3.27999 43.8592C3.25752 43.8367 3.23506 43.7918 3.21259 43.7693C3.21259 43.7244 3.16763 43.6794 3.14517 43.657C3.1227 43.5896 3.07777 43.5222 3.05531 43.4323C3.05531 43.3873 3.03283 43.3649 3.01036 43.3199C3.01036 43.2525 2.96543 43.1626 2.96543 43.0952C2.96543 43.0054 2.94295 42.9155 2.94295 42.8481C2.94295 42.6459 2.94295 42.4436 2.94295 42.2414C2.96542 42.0167 3.01036 41.792 3.03283 41.5674C3.03283 41.5224 3.03283 41.4775 3.03283 41.4101C3.03283 41.3427 3.03283 41.2753 3.03283 41.2079C3.03283 41.1854 3.03283 41.1404 3.03283 41.118C3.03283 40.9382 3.07776 40.736 3.07776 40.5563C3.07776 40.4664 3.07776 40.399 3.07776 40.3091C3.07776 40.062 3.10024 39.7923 3.12271 39.5452C3.12271 39.5002 3.12271 39.4553 3.12271 39.3879C3.12271 39.2081 3.12271 39.0059 3.12271 38.8262C3.12271 38.7363 3.12271 38.6464 3.12271 38.5565C3.12271 38.4667 3.12271 38.3543 3.12271 38.2644V37.9948C3.12271 37.9948 3.12271 37.8375 3.12271 37.7701V37.6578C3.12271 37.6578 3.12271 37.478 3.12271 37.3657C3.12271 36.7141 3.05529 36.085 2.98788 35.4558C2.98788 35.3884 2.9879 35.2986 2.96543 35.2087C2.94296 34.9166 2.89801 34.647 2.85308 34.3773C2.85308 34.265 2.83062 34.1526 2.80815 34.0628C2.80815 33.9954 2.80814 33.928 2.78567 33.8606C2.78567 33.7932 2.78567 33.7257 2.7632 33.6583C2.74073 33.2988 2.76321 32.9843 2.87555 32.6472C2.89802 32.5574 2.94296 32.4675 2.96543 32.4001C2.96543 32.3551 2.98789 32.3327 3.03283 32.2877C3.03283 32.2428 3.07777 32.1979 3.10024 32.1529C3.14517 32.0406 3.21257 31.9507 3.30245 31.8384C3.32492 31.7934 3.36986 31.7485 3.4148 31.6811C3.52714 31.5238 3.68442 31.389 3.81924 31.2542C3.84171 31.2317 3.88665 31.1868 3.93159 31.1643C4.11134 31.007 4.31355 30.8497 4.53824 30.7149C4.71799 30.6026 4.89774 30.4902 5.09996 30.3779C5.1449 30.3779 5.16737 30.333 5.21231 30.333C5.63922 30.1083 6.11106 29.906 6.65031 29.7038C6.69525 29.7038 6.74019 29.6589 6.80759 29.6589C6.85253 29.6589 6.91994 29.6139 6.98735 29.5915C7.05475 29.5915 7.12215 29.5465 7.18956 29.5241C7.594 29.3893 8.0209 29.2769 8.47028 29.1646C8.51522 29.1646 8.58263 29.1421 8.65004 29.1196C8.85225 29.0747 9.05447 29.0298 9.27916 28.9848C9.3915 28.9624 9.50385 28.9399 9.6162 28.9174C9.90829 28.85 10.2004 28.8051 10.515 28.7601C10.5824 28.7601 10.6498 28.7601 10.7172 28.7377C11.0991 28.6703 11.4811 28.6253 11.8631 28.5804C11.8631 28.5804 11.8855 28.5804 11.908 28.5804C11.9754 28.5804 12.0428 28.5804 12.1327 28.5579C12.3349 28.5354 12.5371 28.513 12.7394 28.4905C12.7394 28.4905 12.8742 28.4905 12.9416 28.4905C12.964 28.4905 13.009 28.4905 13.0314 28.4905C13.5482 28.4456 14.0875 28.4231 14.6267 28.4006C14.6267 28.4006 14.784 28.4006 14.8739 28.4006C14.9638 28.4006 15.0761 28.4006 15.1885 28.4006C15.2559 28.4006 15.3457 28.4006 15.4132 28.4006C15.548 28.4006 15.6828 28.4006 15.8176 28.4006H16.1322C16.4917 28.4006 16.8511 28.4006 17.2106 28.4006C17.2781 28.4006 17.3679 28.4006 17.4353 28.4006C17.4803 28.4006 17.5027 28.4006 17.5477 28.4006C17.6376 28.4006 17.7274 28.4006 17.8173 28.4006C17.8173 28.4006 17.9746 28.4006 18.042 28.4006C18.2667 28.4006 18.5138 28.4006 18.7385 28.4456C18.8284 28.4456 18.8958 28.4456 18.9857 28.4456C19.1879 28.4456 19.3901 28.468 19.5699 28.4905C19.6373 28.4905 19.7047 28.4905 19.7721 28.4905C20.0867 28.513 20.3788 28.5355 20.6708 28.5804C20.6708 28.5804 20.7158 28.5804 20.7383 28.5804C20.8057 28.5804 20.8731 28.5804 20.9405 28.6028H21.0304C21.1427 28.6253 21.2775 28.6478 21.3899 28.6703C21.4797 28.6703 21.5471 28.6703 21.637 28.6927H21.7269C21.7269 28.6927 21.8392 28.7377 21.9066 28.7377C22.5358 28.85 23.1424 28.9624 23.6817 29.1196C23.7266 29.1196 23.794 29.1421 23.839 29.1646C23.839 29.1646 23.9738 29.2095 24.0412 29.232C24.176 29.2769 24.3108 29.2994 24.4456 29.3443C24.5804 29.3893 24.7152 29.4342 24.85 29.4791C25.0298 29.5465 25.2095 29.614 25.3893 29.6814C25.4342 29.6814 25.4792 29.7038 25.5241 29.7488C25.7039 29.8162 25.8611 29.8836 26.0184 29.9734C26.0858 29.9959 26.1308 30.0184 26.1982 30.0633C26.4229 30.1757 26.6476 30.288 26.8498 30.4228C26.8947 30.4228 26.9397 30.4678 26.9621 30.4902C27.2767 30.7149 27.5688 30.9171 27.7935 31.1643C27.8384 31.2092 27.8833 31.2542 27.9283 31.2991C27.9508 31.2991 27.9732 31.344 27.9957 31.3665C28.0182 31.389 28.0631 31.4339 28.0856 31.4564C28.4001 31.8384 28.6023 32.2428 28.6922 32.6697C28.6922 32.7147 28.6922 32.7596 28.7147 32.8045C28.7147 32.9169 28.7372 33.0517 28.7372 33.164L28.6697 32.9618Z" fill="#EEE7E1"/>
<path opacity="0.31" d="M28.5577 33.0742L27.2095 31.726L27.8387 31.0969C27.8387 31.0969 27.7712 31.007 27.7038 30.9621L27.0523 31.6137L25.7041 30.2656L26.1086 29.8611C26.1086 29.8611 25.9962 29.7937 25.9288 29.7712L25.5693 30.1307L24.738 29.2994C24.6031 29.2545 24.4683 29.2095 24.3335 29.1646L25.412 30.2656L24.0639 31.6137L22.7158 30.2656L23.9291 29.0522C23.9291 29.0522 23.7943 29.0073 23.7269 28.9848L22.581 30.1307L21.2328 28.7826L21.48 28.5355C21.48 28.5355 21.3227 28.5355 21.2328 28.513L21.0755 28.6703L20.8733 28.4681H20.7835C20.7835 28.4681 20.6486 28.4456 20.5812 28.4231L20.9632 28.8051L19.6151 30.1532L18.2669 28.8051L18.8287 28.2434C18.8287 28.2434 18.6714 28.2434 18.5815 28.2434L18.1546 28.6703L17.6828 28.1984C17.6828 28.1984 17.503 28.1984 17.4131 28.1984L18.0423 28.8276L16.6941 30.1757L15.346 28.8276L15.9976 28.176H15.728L15.2112 28.6927L14.7169 28.1984C14.7169 28.1984 14.5371 28.1984 14.4697 28.1984L15.0764 28.8051L13.7283 30.1532L12.3801 28.8051L12.8969 28.2883C12.8969 28.2883 12.8295 28.2883 12.807 28.2883C12.7396 28.2883 12.6722 28.2883 12.6048 28.2883L12.2453 28.6478L11.9532 28.3557C11.9532 28.3557 11.8184 28.3557 11.7285 28.3782L12.1105 28.7601L10.7624 30.1083L9.41423 28.7601H9.4367C9.32436 28.7601 9.21201 28.7602 9.09967 28.8051L7.79647 30.1083L7.03254 29.3443C7.03254 29.3443 6.89774 29.3893 6.83033 29.4117L7.66166 30.2431L6.31354 31.5912L4.96541 30.2431L5.05529 30.1532C5.05529 30.1532 4.98788 30.1982 4.94294 30.1982C4.74072 30.3105 4.56097 30.4228 4.38122 30.5352L3.32518 31.5912L3.25778 31.5238C3.25778 31.5238 3.1679 31.6137 3.14543 31.6811L3.19037 31.726L2.94322 31.9732C2.94322 31.9732 2.89828 32.0631 2.87581 32.108C2.85334 32.1529 2.83088 32.1754 2.80841 32.2203C2.76347 32.3102 2.741 32.4001 2.71853 32.4675L3.34766 31.8384L4.69578 33.1865L3.34766 34.5346L2.67358 33.8606C2.67358 33.8606 2.71853 34.0853 2.71853 34.1751L3.19037 34.647L2.83086 35.0065C2.83086 35.0065 2.83087 35.1638 2.85334 35.2536L3.32518 34.7818L4.67331 36.1299L3.32518 37.4781L3.01062 37.1635C3.01062 37.1635 3.01062 37.3432 3.01062 37.4556L3.19037 37.6353L3.03309 37.7926V38.0622L3.32518 37.7701L4.67331 39.1183L3.32518 40.4664L2.96569 40.1069C2.96569 40.1069 2.96569 40.2642 2.96569 40.3541L3.21285 40.6012L2.89829 40.9158C2.89829 40.9158 2.89829 40.9832 2.89829 41.0057C2.89829 41.0731 2.89829 41.1405 2.89829 41.2079L3.37013 40.736L4.71825 42.0841L3.37013 43.4323L2.80841 42.8706C2.80841 42.938 2.83087 43.0278 2.85334 43.0953C2.85334 43.1402 2.85335 43.1627 2.89829 43.2076L3.2353 43.5446L3.12297 43.657C3.12297 43.657 3.19038 43.7693 3.21285 43.8367L3.37013 43.6795L4.71825 45.0276L4.6059 45.1399C4.6059 45.1399 4.71825 45.2073 4.76318 45.2523L4.85306 45.1624L5.21257 45.5219C5.21257 45.5219 5.27998 45.5668 5.30245 45.5668C5.36985 45.5893 5.41478 45.6342 5.48219 45.6567C5.57206 45.7016 5.63947 45.7466 5.72934 45.769L4.96541 45.0051L6.31354 43.657L7.66166 45.0051L6.5607 46.1061C6.5607 46.1061 6.60563 46.1061 6.6281 46.1285C6.65057 46.1285 6.69551 46.1285 6.71798 46.1735L7.77401 45.1175L9.12214 46.4656L8.83005 46.7577C8.83005 46.7577 8.91993 46.7577 8.98733 46.8026C8.98733 46.8026 9.03227 46.8026 9.05474 46.8026L9.27942 46.5779L9.61646 46.9149C9.61646 46.9149 9.84115 46.9599 9.95349 46.9824L9.4367 46.4656L10.7848 45.1175L12.133 46.4656L11.369 47.2295C11.369 47.2295 11.5263 47.2295 11.6162 47.252L12.2678 46.6004L13.0767 47.4093C13.0767 47.4093 13.2789 47.4093 13.3687 47.4093L12.4026 46.4431L13.7507 45.095L15.0988 46.4431L14.0877 47.4542C14.0877 47.4542 14.2675 47.4542 14.3574 47.4542L15.2337 46.5779L16.1549 47.4991H16.4245L15.3685 46.4431L16.7166 45.095L18.0647 46.4431L17.0087 47.4991H17.0986C17.0986 47.4991 17.2334 47.4991 17.2783 47.4991L18.1995 46.6004L19.0084 47.4093C19.0084 47.4093 19.1657 47.4093 19.2556 47.4093L18.3119 46.4656L19.66 45.1175L21.0081 46.4656L20.1543 47.3194C20.1543 47.3194 20.3341 47.3194 20.424 47.2969C20.424 47.2969 20.4464 47.2969 20.4689 47.2969L21.143 46.6229L21.6373 47.1172C21.6373 47.1172 21.7047 47.1172 21.7271 47.1172C21.7721 47.1172 21.817 47.1172 21.862 47.0947L21.2778 46.5105L22.6259 45.1624L23.974 46.5105L23.8392 46.6453C23.8392 46.6453 23.8617 46.6453 23.8842 46.6453C24.019 46.6004 24.1538 46.5779 24.2661 46.533L25.6142 45.1624L26.176 45.7241C26.176 45.7241 26.2883 45.6567 26.3557 45.6342L25.7491 45.0276L27.0972 43.6795L27.8611 44.4434C27.8611 44.4434 27.8836 44.4209 27.8836 44.3985C27.9061 44.376 27.9285 44.3535 27.951 44.3086L27.2095 43.5671L28.5127 42.2639C28.5127 42.2639 28.5127 42.219 28.5127 42.1965C28.5127 42.1066 28.5127 42.0392 28.4903 41.9493C28.4903 41.9269 28.4903 41.8819 28.4903 41.837L27.232 40.6012L28.2656 39.5677C28.2656 39.5677 28.2656 39.3879 28.2656 39.298L27.0972 40.4664L25.7491 39.1183L27.0972 37.7701L28.2431 38.9161C28.2431 38.9161 28.2431 38.7363 28.2431 38.6464L27.232 37.6353L28.288 36.5793C28.288 36.5793 28.288 36.3996 28.288 36.2872L27.0747 37.5005L25.7266 36.1524L27.0747 34.8043L28.288 36.0176C28.288 36.0176 28.288 35.8603 28.288 35.7704L27.1646 34.647L28.5127 33.2989L28.6026 33.3887C28.6026 33.3887 28.6026 33.2988 28.6026 33.2764C28.6026 33.164 28.6026 33.0517 28.6026 32.9393L28.4903 33.0517L28.5577 33.0742ZM25.5918 30.3779L26.9399 31.726L25.5918 33.0742L24.2437 31.726L25.5918 30.3779ZM25.457 33.209L24.1088 34.5571L22.7607 33.209L24.1088 31.8608L25.457 33.209ZM9.12214 37.6578L7.77401 39.0059L6.42589 37.6578L7.77401 36.3097L9.12214 37.6578ZM7.90882 36.1749L9.25695 34.8267L10.6051 36.1749L9.25695 37.523L7.90882 36.1749ZM9.25695 37.7926L10.6051 39.1407L9.25695 40.4889L7.90882 39.1407L9.25695 37.7926ZM9.39177 37.6578L10.7399 36.3097L12.088 37.6578L10.7399 39.0059L9.39177 37.6578ZM10.8747 36.1749L12.2228 34.8267L13.571 36.1749L12.2228 37.523L10.8747 36.1749ZM12.2228 37.7926L13.571 39.1407L12.2228 40.4889L10.8747 39.1407L12.2228 37.7926ZM12.3577 37.6578L13.7058 36.3097L15.0539 37.6578L13.7058 39.0059L12.3577 37.6578ZM13.8406 36.1749L15.1887 34.8267L16.5369 36.1749L15.1887 37.523L13.8406 36.1749ZM15.1887 37.7926L16.5369 39.1407L15.1887 40.4889L13.8406 39.1407L15.1887 37.7926ZM15.3235 37.6578L16.6717 36.3097L18.0198 37.6578L16.6717 39.0059L15.3235 37.6578ZM16.8065 36.1749L18.1546 34.8267L19.5027 36.1749L18.1546 37.523L16.8065 36.1749ZM18.1546 37.7926L19.5027 39.1407L18.1546 40.4889L16.8065 39.1407L18.1546 37.7926ZM18.2894 37.6578L19.6375 36.3097L20.9857 37.6578L19.6375 39.0059L18.2894 37.6578ZM19.7724 36.1749L21.1205 34.8267L22.4686 36.1749L21.1205 37.523L19.7724 36.1749ZM21.1205 37.7926L22.4686 39.1407L21.1205 40.4889L19.7724 39.1407L21.1205 37.7926ZM21.2553 37.6578L22.6034 36.3097L23.9516 37.6578L22.6034 39.0059L21.2553 37.6578ZM21.2553 34.6919L22.6034 33.3438L23.9516 34.6919L22.6034 36.04L21.2553 34.6919ZM21.1205 34.5571L19.7724 33.209L21.1205 31.8608L22.4686 33.209L21.1205 34.5571ZM20.9857 34.6919L19.6375 36.04L18.2894 34.6919L19.6375 33.3438L20.9857 34.6919ZM18.1546 34.5571L16.8065 33.209L18.1546 31.8608L19.5027 33.209L18.1546 34.5571ZM18.0198 34.6919L16.6717 36.04L15.3235 34.6919L16.6717 33.3438L18.0198 34.6919ZM15.1887 34.5571L13.8406 33.209L15.1887 31.8608L16.5369 33.209L15.1887 34.5571ZM15.0539 34.6919L13.7058 36.04L12.3577 34.6919L13.7058 33.3438L15.0539 34.6919ZM12.2228 34.5571L10.8747 33.209L12.2228 31.8608L13.571 33.209L12.2228 34.5571ZM12.088 34.6919L10.7399 36.04L9.39177 34.6919L10.7399 33.3438L12.088 34.6919ZM9.12214 34.6919L7.77401 36.04L6.42589 34.6919L7.77401 33.3438L9.12214 34.6919ZM7.63919 36.1749L6.29106 37.523L4.94294 36.1749L6.29106 34.8267L7.63919 36.1749ZM7.63919 39.1407L6.29106 40.4889L4.94294 39.1407L6.29106 37.7926L7.63919 39.1407ZM7.77401 39.2755L9.12214 40.6237L7.77401 41.9718L6.42589 40.6237L7.77401 39.2755ZM9.25695 40.7585L10.6051 42.1066L9.25695 43.4547L7.90882 42.1066L9.25695 40.7585ZM9.39177 40.6237L10.7399 39.2755L12.088 40.6237L10.7399 41.9718L9.39177 40.6237ZM12.2228 40.7585L13.571 42.1066L12.2228 43.4547L10.8747 42.1066L12.2228 40.7585ZM12.3577 40.6237L13.7058 39.2755L15.0539 40.6237L13.7058 41.9718L12.3577 40.6237ZM15.1887 40.7585L16.5369 42.1066L15.1887 43.4547L13.8406 42.1066L15.1887 40.7585ZM15.3235 40.6237L16.6717 39.2755L18.0198 40.6237L16.6717 41.9718L15.3235 40.6237ZM18.1546 40.7585L19.5027 42.1066L18.1546 43.4547L16.8065 42.1066L18.1546 40.7585ZM18.2894 40.6237L19.6375 39.2755L20.9857 40.6237L19.6375 41.9718L18.2894 40.6237ZM21.1205 40.7585L22.4686 42.1066L21.1205 43.4547L19.7724 42.1066L21.1205 40.7585ZM21.2553 40.6237L22.6034 39.2755L23.9516 40.6237L22.6034 41.9718L21.2553 40.6237ZM24.0864 40.7585L25.4345 42.1066L24.0864 43.4547L22.7382 42.1066L24.0864 40.7585ZM22.7382 39.1407L24.0864 37.7926L25.4345 39.1407L24.0864 40.4889L22.7382 39.1407ZM22.7382 36.1749L24.0864 34.8267L25.4345 36.1749L24.0864 37.523L22.7382 36.1749ZM23.9516 31.7036L22.6034 33.0517L21.2553 31.7036L22.6034 30.3554L23.9516 31.7036ZM21.1205 28.8725L22.4686 30.2206L21.1205 31.5687L19.7724 30.2206L21.1205 28.8725ZM20.9857 31.7036L19.6375 33.0517L18.2894 31.7036L19.6375 30.3554L20.9857 31.7036ZM18.1546 28.8725L19.5027 30.2206L18.1546 31.5687L16.8065 30.2206L18.1546 28.8725ZM18.0198 31.7036L16.6717 33.0517L15.3235 31.7036L16.6717 30.3554L18.0198 31.7036ZM15.1887 28.8725L16.5369 30.2206L15.1887 31.5687L13.8406 30.2206L15.1887 28.8725ZM15.0539 31.7036L13.7058 33.0517L12.3577 31.7036L13.7058 30.3554L15.0539 31.7036ZM12.2228 28.8725L13.571 30.2206L12.2228 31.5687L10.8747 30.2206L12.2228 28.8725ZM12.088 31.7036L10.7399 33.0517L9.39177 31.7036L10.7399 30.3554L12.088 31.7036ZM9.25695 28.8725L10.6051 30.2206L9.25695 31.5687L7.90882 30.2206L9.25695 28.8725ZM7.77401 30.3554L9.12214 31.7036L7.77401 33.0517L6.42589 31.7036L7.77401 30.3554ZM7.63919 33.1865L6.29106 34.5346L4.94294 33.1865L6.29106 31.8384L7.63919 33.1865ZM3.46001 31.7036L4.80813 30.3554L6.15626 31.7036L4.80813 33.0517L3.46001 31.7036ZM3.46001 34.6695L4.80813 33.3213L6.15626 34.6695L4.80813 36.0176L3.46001 34.6695ZM3.46001 37.6353L4.80813 36.2872L6.15626 37.6353L4.80813 38.9835L3.46001 37.6353ZM3.46001 40.6012L4.80813 39.2531L6.15626 40.6012L4.80813 41.9493L3.46001 40.6012ZM4.80813 44.9152L3.46001 43.5671L4.80813 42.219L6.15626 43.5671L4.80813 44.9152ZM4.94294 42.0841L6.29106 40.736L7.63919 42.0841L6.29106 43.4323L4.94294 42.0841ZM6.42589 43.5671L7.77401 42.219L9.12214 43.5671L7.77401 44.9152L6.42589 43.5671ZM9.25695 46.3982L7.90882 45.05L9.25695 43.7019L10.6051 45.05L9.25695 46.3982ZM9.39177 43.5671L10.7399 42.219L12.088 43.5671L10.7399 44.9152L9.39177 43.5671ZM12.2228 46.3982L10.8747 45.05L12.2228 43.7019L13.571 45.05L12.2228 46.3982ZM12.3577 43.5671L13.7058 42.219L15.0539 43.5671L13.7058 44.9152L12.3577 43.5671ZM15.1887 46.3982L13.8406 45.05L15.1887 43.7019L16.5369 45.05L15.1887 46.3982ZM15.3235 43.5671L16.6717 42.219L18.0198 43.5671L16.6717 44.9152L15.3235 43.5671ZM18.1546 46.3982L16.8065 45.05L18.1546 43.7019L19.5027 45.05L18.1546 46.3982ZM18.2894 43.5671L19.6375 42.219L20.9857 43.5671L19.6375 44.9152L18.2894 43.5671ZM21.1205 46.3982L19.7724 45.05L21.1205 43.7019L22.4686 45.05L21.1205 46.3982ZM21.2553 43.5671L22.6034 42.219L23.9516 43.5671L22.6034 44.9152L21.2553 43.5671ZM24.0864 46.3982L22.7382 45.05L24.0864 43.7019L25.4345 45.05L24.0864 46.3982ZM25.5693 44.9152L24.2212 43.5671L25.5693 42.219L26.9174 43.5671L25.5693 44.9152ZM28.4004 42.0841L27.0523 43.4323L25.7041 42.0841L27.0523 40.736L28.4004 42.0841ZM26.9174 40.6012L25.5693 41.9493L24.2212 40.6012L25.5693 39.2531L26.9174 40.6012ZM26.9174 37.6353L25.5693 38.9835L24.2212 37.6353L25.5693 36.2872L26.9174 37.6353ZM25.5693 36.0176L24.2212 34.6695L25.5693 33.3213L26.9174 34.6695L25.5693 36.0176ZM27.0523 34.5346L25.7041 33.1865L27.0523 31.8384L28.4004 33.1865L27.0523 34.5346ZM9.21202 34.5346L7.86389 33.1865L9.21202 31.8384L10.5601 33.1865L9.21202 34.5346Z" fill="#121E44"/>
<path d="M28.9844 32.872C28.7148 35.7929 22.8729 38.1297 15.6829 38.1297C8.49286 38.1297 2.65097 35.7929 2.38135 32.872C2.65097 29.951 8.49286 27.6143 15.6829 27.6143C22.8729 27.6143 28.7148 29.951 28.9844 32.872Z" fill="#EEE7E1"/>
<g opacity="0.25">
<path d="M15.6827 36.8264C16.6382 36.8264 17.4128 36.434 17.4128 35.9501C17.4128 35.4661 16.6382 35.0738 15.6827 35.0738C14.7272 35.0738 13.9526 35.4661 13.9526 35.9501C13.9526 36.434 14.7272 36.8264 15.6827 36.8264Z" fill="#121E44"/>
<path d="M17.9746 34.8041C17.3679 34.4895 16.5366 34.3322 15.6827 34.3322C14.8289 34.3322 13.9976 34.512 13.3909 34.8041L11.8406 34.0177C12.8741 33.5009 14.2447 33.2088 15.7052 33.2088C17.1657 33.2088 18.5363 33.5009 19.5699 34.0177L18.0195 34.8041H17.9746Z" fill="#121E44"/>
<path d="M20.963 33.2762C18.0645 31.7933 13.3236 31.7933 10.4251 33.2762L8.87476 32.4898C12.6495 30.58 18.761 30.58 22.5358 32.4898L20.9854 33.2762H20.963Z" fill="#121E44"/>
<path d="M23.9739 31.7484C21.7719 30.625 18.8285 29.9959 15.6829 29.9959C12.5373 29.9959 9.61632 30.625 7.39191 31.7484L5.84155 30.962C8.4704 29.6364 11.9755 28.8949 15.6829 28.8949C19.3902 28.8949 22.8954 29.6364 25.5242 30.962L23.9739 31.7484Z" fill="#121E44"/>
</g>
<path d="M26.7378 78.5509C26.7378 78.843 26.5356 79.3598 26.0188 79.6294C24.3561 80.4383 20.3117 81 15.5933 81C10.8748 81 6.65069 80.4158 5.07788 79.562C4.89812 79.4721 4.76332 79.3822 4.65098 79.2699C4.65098 79.2699 4.60604 79.225 4.58358 79.225C4.51617 79.18 4.47122 79.1126 4.42628 79.0452C4.42628 79.0003 4.40382 78.9778 4.38135 78.9329C4.38135 78.8879 4.38135 78.843 4.38135 78.7981V76.8882C7.86401 77.2028 11.6837 77.3825 15.6607 77.3825C19.6377 77.3825 23.3001 77.2252 26.7378 76.9107V78.5509Z" fill="#EB9E2D"/>
<path d="M15.4585 77.3828L4.38135 75.3156V48.2183L15.1888 50.4202L15.4585 77.3828Z" fill="#EEE7E1"/>
<path d="M26.7378 48.2183V75.3156L15.5933 77.3828L16.4246 50.4202L26.7378 48.2183Z" fill="#EEE7E1"/>
<path d="M24.8051 49.0945C24.9399 49.0495 25.0747 49.0495 25.187 49.072C25.2994 49.072 25.3893 49.117 25.4791 49.1844C25.5465 49.2518 25.6139 49.3192 25.6589 49.409C25.7038 49.4989 25.7263 49.6113 25.7263 49.7236C25.7263 49.8359 25.7038 49.9708 25.6364 50.0831C25.5915 50.1955 25.5016 50.3078 25.4117 50.4202C25.3218 50.51 25.2095 50.5999 25.0972 50.6898C24.9848 50.7572 24.85 50.8246 24.7152 50.847L24.4006 50.9369V51.4088C24.4006 51.5436 24.4231 51.6559 24.4905 51.7683C24.4905 51.7683 24.4905 51.8132 24.4905 51.8357C24.4905 51.8357 24.4905 51.8581 24.4905 51.8806C24.4905 51.8806 24.468 51.9031 24.4456 51.9031L23.7715 52.0828C23.7715 52.0828 23.749 52.0828 23.7266 52.0828C23.7266 52.0828 23.7266 52.0828 23.7266 52.0604C23.7266 52.0604 23.7266 52.0154 23.7266 51.993C23.794 51.8581 23.8389 51.7009 23.8389 51.566V49.8584C23.8614 49.7236 23.8389 49.6113 23.7715 49.4989C23.7715 49.4989 23.7715 49.4989 23.7715 49.4764C23.7715 49.4764 23.7715 49.4765 23.7715 49.454C23.7715 49.454 23.7715 49.4315 23.7715 49.409C23.7715 49.3866 23.794 49.3866 23.8164 49.3866L24.8051 49.117V49.0945ZM24.513 50.6898C24.513 50.6898 24.6927 50.6224 24.7826 50.5774C24.8725 50.5325 24.9399 50.4651 24.9848 50.3977C25.0522 50.3303 25.0972 50.2404 25.1196 50.1505C25.1421 50.0606 25.1646 49.9483 25.1646 49.836C25.1646 49.7236 25.1646 49.6562 25.1196 49.5888C25.0972 49.5214 25.0522 49.4765 24.9848 49.4315C24.9174 49.3866 24.85 49.3866 24.7826 49.3641C24.6927 49.3641 24.6253 49.3641 24.513 49.3866H24.4231V50.7122H24.513V50.6898Z" fill="#C4303D"/>
<path d="M25.9285 49.4764C25.9285 49.4764 25.9285 49.4314 25.9285 49.4089C25.9285 49.4089 25.9509 49.3865 25.9734 49.364L26.4677 49.1393C26.4677 49.1393 26.5127 49.1393 26.5351 49.1393C26.5576 49.1393 26.5576 49.1618 26.5576 49.1843V50.802C26.5576 50.9368 26.5801 51.0492 26.6475 51.1615V51.2065C26.6475 51.2065 26.6475 51.2289 26.6475 51.2514C26.6475 51.2514 26.625 51.2739 26.6025 51.2739L25.9509 51.4536C25.9509 51.4536 25.9285 51.4536 25.906 51.4536C25.906 51.4536 25.906 51.4536 25.906 51.4311C25.906 51.4311 25.906 51.3862 25.906 51.3637C25.9734 51.2289 26.0183 51.0941 26.0183 50.9593V49.7685C26.0183 49.7685 25.9959 49.5887 25.9285 49.5213C25.9285 49.5213 25.9285 49.4988 25.9285 49.4764ZM26.5576 48.6001C26.5576 48.6001 26.5351 48.7349 26.4677 48.8023C26.4003 48.8697 26.3554 48.9146 26.2655 48.9371C26.1756 48.9596 26.1307 48.9371 26.0633 48.9146C26.0183 48.8697 25.9734 48.8248 25.9734 48.7349C25.9734 48.645 25.9959 48.6001 26.0633 48.5327C26.1082 48.4653 26.1756 48.4203 26.2655 48.3979C26.3554 48.3754 26.4003 48.3978 26.4677 48.4203C26.5127 48.4653 26.5576 48.5102 26.5576 48.5776V48.6001Z" fill="#C4303D"/>
<g opacity="0.6">
<path d="M18.8511 74.4393H18.7837L19.4802 52.9592H19.5476L18.8511 74.4393Z" fill="#010101"/>
</g>
<path d="M26.7377 58.6885V63.4295L21.3003 65.1146L21.3228 60.3962L26.7377 58.6885Z" fill="#FDB735"/>
<g opacity="0.6">
<path d="M17.8401 72.6865H17.7727L18.3569 54.7115H18.4243L17.8401 72.6865Z" fill="#010101"/>
</g>
<g opacity="0.6">
<path d="M26.7377 59.9019V60.3288L22.2889 61.7668L22.1541 61.3624L26.7377 59.9019Z" fill="#010101"/>
</g>
<g opacity="0.6">
<path d="M26.7377 61.1154V61.5423L22.2889 62.9803L22.1541 62.5758L26.7377 61.1154Z" fill="#010101"/>
</g>
<g opacity="0.6">
<path d="M26.7377 56.3967V56.5315L22.2439 57.9695L22.199 57.8347L26.7377 56.3967Z" fill="#010101"/>
</g>
<g opacity="0.6">
<path d="M26.7377 57.6101V57.7449L22.2439 59.1829L22.199 59.0481L26.7377 57.6101Z" fill="#010101"/>
</g>
<g opacity="0.6">
<path d="M26.7377 55.1611V55.3184L22.2439 56.7564L22.199 56.6215L26.7377 55.1611Z" fill="#010101"/>
</g>
<g opacity="0.6">
<path d="M26.7377 53.9476V54.1049L22.2439 55.5204L22.199 55.3856L26.7377 53.9476Z" fill="#010101"/>
</g>
<g opacity="0.6">
<path d="M26.7377 52.7343V52.8691L22.2439 54.3071L22.199 54.1723L26.7377 52.7343Z" fill="#010101"/>
</g>
<g opacity="0.6">
<path d="M14.8743 56.217L14.8069 56.4866L4.38135 53.3859V53.0938L14.8743 56.217Z" fill="#010101"/>
</g>
<g opacity="0.6">
<path d="M14.8743 62.9352L14.8069 63.2048L4.38135 60.1041V59.812L14.8743 62.9352Z" fill="#010101"/>
</g>
<g opacity="0.6">
<path d="M14.8743 69.6532L14.8069 69.9229L4.38135 66.7997V66.5076L14.8743 69.6532Z" fill="#010101"/>
</g>
<g opacity="0.6">
<path d="M9.12227 55.7902L9.07734 55.925L4.38135 54.532V54.3747L9.12227 55.7902Z" fill="#010101"/>
</g>
<g opacity="0.6">
<path d="M9.1672 62.1263L9.05487 62.5083L4.38135 61.1152V60.6883L9.1672 62.1263Z" fill="#010101"/>
</g>
<g opacity="0.6">
<path d="M12.0882 64.6203L11.9758 65.0022L4.38135 62.7329V62.306L12.0882 64.6203Z" fill="#010101"/>
</g>
<g opacity="0.6">
<path d="M13.7059 66.7101L13.5936 67.1145L4.38135 64.3733V63.924L13.7059 66.7101Z" fill="#010101"/>
</g>
<g opacity="0.6">
<path d="M9.77387 67.1594L9.63906 67.5638L4.38135 65.991V65.5641L9.77387 67.1594Z" fill="#010101"/>
</g>
<g opacity="0.6">
<path d="M7.21242 58.0146L7.16748 58.1494L4.38135 57.3181V57.1608L7.21242 58.0146Z" fill="#010101"/>
</g>
<g opacity="0.6">
<path d="M6.42602 56.3294L6.38107 56.4643L4.38135 55.8576V55.7228L6.42602 56.3294Z" fill="#010101"/>
</g>
<g opacity="0.6">
<path d="M7.03267 50.3528L6.98774 50.4651L4.38135 49.7012V49.5663L7.03267 50.3528Z" fill="#010101"/>
</g>
<g opacity="0.6">
<path d="M7.21242 53.2063L7.16748 53.3411L4.38135 52.5098V52.3525L7.21242 53.2063Z" fill="#010101"/>
</g>
<g opacity="0.6">
<path d="M6.42602 51.521L6.38107 51.6558L4.38135 51.0492V50.8919L6.42602 51.521Z" fill="#010101"/>
</g>
<g opacity="0.6">
<path d="M11.8635 70.4847L11.8185 70.6195L4.38135 68.3951V68.2603L11.8635 70.4847Z" fill="#010101"/>
</g>
<g opacity="0.6">
<path d="M14.6271 74.1021L14.5822 74.237L4.38135 71.1812V71.0464L14.6271 74.1021Z" fill="#010101"/>
</g>
<g opacity="0.6">
<path d="M12.5151 75.1582L12.4701 75.293L4.38135 72.8664V72.7316L12.5151 75.1582Z" fill="#010101"/>
</g>
<g opacity="0.6">
<path d="M14.2676 72.5517L14.2452 72.6865L4.38135 69.7207V69.5858L14.2676 72.5517Z" fill="#010101"/>
</g>
<g opacity="0.6">
<path d="M9.76064 53.4117L9.64307 53.7987L14.7812 55.3598L14.8988 54.9728L9.76064 53.4117Z" fill="#010101"/>
</g>
<g opacity="0.6">
<path d="M9.76772 52.1827L9.65015 52.5696L14.7883 54.1307L14.9059 53.7438L9.76772 52.1827Z" fill="#010101"/>
</g>
<g opacity="0.6">
<path d="M9.77553 50.9761L9.65796 51.3631L14.7961 52.9242L14.9137 52.5372L9.77553 50.9761Z" fill="#010101"/>
</g>
<g opacity="0.6">
<path d="M26.7377 62.3285V62.7779L22.2889 64.1934L22.1541 63.789L26.7377 62.3285Z" fill="#010101"/>
</g>
<g opacity="0.6">
<path d="M26.7377 65.272V65.6989L22.2889 67.1144L22.1541 66.7325L26.7377 65.272Z" fill="#010101"/>
</g>
<g opacity="0.6">
<path d="M26.7377 66.4854V66.9123L22.2889 68.3503L22.1541 67.9459L26.7377 66.4854Z" fill="#010101"/>
</g>
<g opacity="0.6">
<path d="M26.7377 72.1026V72.2599L22.2439 73.6979L22.199 73.5631L26.7377 72.1026Z" fill="#010101"/>
</g>
</svg>
