<?xml version="1.0" encoding="UTF-8"?><svg id="Layer_2" xmlns="http://www.w3.org/2000/svg" viewBox="0 0 119.66 40"><g id="artwork"><path d="m110.13,0H9.53C9.17,0,8.81,0,8.44,0c-.31,0-.61,0-.92.01-.67,0-1.34.07-2,.18-.66.11-1.3.32-1.9.63-.6.31-1.14.7-1.62,1.18-.48.47-.88,1.02-1.18,1.62-.3.6-.51,1.24-.62,1.9C.08,6.18.02,6.85.02,7.52c0,.31-.01.61-.02.92v23.11c0,.31,0,.61.02.92,0,.67.07,1.34.18,2,.11.66.32,1.31.63,1.9.3.6.7,1.14,1.18,1.61.47.48,1.02.87,1.62,1.18.6.3,1.24.52,1.9.63.66.11,1.33.17,2,.18.31,0,.61.01.92.01.37,0,.73,0,1.09,0h100.6c.36,0,.72,0,1.08,0,.3,0,.62,0,.92-.01.67,0,1.34-.07,2-.18.66-.11,1.31-.33,1.91-.63.6-.3,1.14-.7,1.62-1.18.48-.47.87-1.02,1.18-1.61.3-.6.51-1.24.62-1.9.11-.66.17-1.33.19-2,0-.31,0-.61,0-.92,0-.36,0-.72,0-1.09V9.54c0-.37,0-.73,0-1.09,0-.31,0-.61,0-.92-.01-.67-.07-1.34-.19-2-.11-.66-.32-1.3-.62-1.9-.62-1.2-1.6-2.18-2.8-2.8-.6-.3-1.24-.51-1.91-.63-.66-.11-1.33-.17-2-.18-.3,0-.62-.01-.92-.01-.36,0-.72,0-1.08,0h0Z" style="fill:#a6a6a6;"/><path d="m8.44,39.13c-.3,0-.6,0-.9-.01-.63,0-1.25-.06-1.87-.16-.58-.1-1.13-.28-1.66-.55-.52-.26-.99-.61-1.4-1.02-.41-.41-.76-.88-1.02-1.4-.26-.52-.45-1.08-.54-1.66-.1-.62-.16-1.25-.17-1.87,0-.21-.01-.91-.01-.91V8.44s0-.69.01-.89c0-.63.06-1.25.17-1.87.1-.58.28-1.14.54-1.66.26-.52.6-.99,1.02-1.4.41-.41.88-.76,1.4-1.02.52-.26,1.08-.45,1.65-.54.62-.1,1.25-.16,1.88-.16h.9s102.77-.01,102.77-.01h.91c.62.02,1.24.07,1.86.18.58.1,1.14.28,1.67.55,1.04.53,1.88,1.38,2.42,2.42.26.52.44,1.08.54,1.65.1.62.16,1.25.17,1.89,0,.28,0,.59,0,.89,0,.37,0,.73,0,1.09v20.93c0,.36,0,.72,0,1.08,0,.33,0,.62,0,.93-.01.62-.07,1.24-.17,1.85-.09.58-.28,1.14-.54,1.67-.26.51-.61.98-1.02,1.39-.41.41-.88.76-1.4,1.02-.53.27-1.09.45-1.67.55-.62.1-1.24.16-1.87.16-.29,0-.6.01-.9.01h-1.08s-101.69,0-101.69,0Z"/><g id="_Group_"><g id="_Group_2"><g id="_Group_3"><path id="_Path_" d="m24.77,20.3c.02-1.7.91-3.26,2.36-4.15-.92-1.31-2.4-2.11-3.99-2.16-1.68-.18-3.31,1-4.16,1s-2.19-.99-3.61-.96c-1.87.06-3.56,1.1-4.47,2.73-1.93,3.35-.49,8.27,1.36,10.98.93,1.33,2.01,2.81,3.43,2.75,1.39-.06,1.91-.88,3.58-.88s2.14.88,3.59.85c1.49-.02,2.43-1.33,3.32-2.67.67-.94,1.18-1.99,1.52-3.09-1.77-.75-2.92-2.48-2.92-4.4Z" style="fill:#fff;"/><path id="_Path_2" d="m22.04,12.21c.81-.97,1.21-2.23,1.11-3.49-1.24.13-2.39.72-3.21,1.66-.81.92-1.22,2.13-1.14,3.36,1.26.01,2.45-.55,3.24-1.53Z" style="fill:#fff;"/></g></g><path d="m42.3,27.14h-4.73l-1.14,3.36h-2l4.48-12.42h2.08l4.48,12.42h-2.04l-1.14-3.36Zm-4.24-1.55h3.75l-1.85-5.45h-.05l-1.85,5.45Z" style="fill:#fff;"/><path d="m55.16,25.97c0,2.81-1.51,4.62-3.78,4.62-1.17.06-2.28-.55-2.85-1.58h-.04v4.48h-1.86v-12.05h1.8v1.51h.03c.59-1.02,1.7-1.64,2.88-1.6,2.3,0,3.81,1.82,3.81,4.62Zm-1.91,0c0-1.83-.95-3.04-2.39-3.04s-2.38,1.23-2.38,3.04.96,3.05,2.38,3.05,2.39-1.2,2.39-3.05Z" style="fill:#fff;"/><path d="m65.12,25.97c0,2.81-1.51,4.62-3.78,4.62-1.17.06-2.28-.55-2.85-1.58h-.04v4.48h-1.86v-12.05h1.8v1.51h.03c.59-1.02,1.7-1.64,2.88-1.6,2.3,0,3.81,1.82,3.81,4.62Zm-1.91,0c0-1.83-.95-3.04-2.39-3.04s-2.38,1.23-2.38,3.04.96,3.05,2.38,3.05,2.39-1.2,2.39-3.05h0Z" style="fill:#fff;"/><path d="m71.71,27.04c.14,1.23,1.33,2.04,2.97,2.04s2.69-.81,2.69-1.92c0-.96-.68-1.54-2.29-1.94l-1.61-.39c-2.28-.55-3.34-1.62-3.34-3.35,0-2.14,1.87-3.61,4.52-3.61s4.42,1.47,4.48,3.61h-1.88c-.11-1.24-1.14-1.99-2.63-1.99s-2.52.76-2.52,1.86c0,.88.65,1.39,2.25,1.79l1.37.34c2.55.6,3.61,1.63,3.61,3.44,0,2.32-1.85,3.78-4.79,3.78-2.75,0-4.61-1.42-4.73-3.67h1.9Z" style="fill:#fff;"/><path d="m83.35,19.3v2.14h1.72v1.47h-1.72v4.99c0,.78.34,1.14,1.1,1.14.2,0,.41-.02.61-.04v1.46c-.34.06-.69.09-1.03.09-1.83,0-2.55-.69-2.55-2.44v-5.19h-1.32v-1.47h1.32v-2.14h1.87Z" style="fill:#fff;"/><path d="m86.07,25.97c0-2.85,1.68-4.64,4.29-4.64s4.29,1.79,4.29,4.64-1.66,4.64-4.29,4.64-4.29-1.78-4.29-4.64Zm6.7,0c0-1.95-.9-3.11-2.4-3.11s-2.4,1.16-2.4,3.11.89,3.11,2.4,3.11,2.4-1.14,2.4-3.11h0Z" style="fill:#fff;"/><path d="m96.19,21.44h1.77v1.54h.04c.25-.99,1.16-1.67,2.18-1.64.21,0,.43.02.64.07v1.74c-.27-.08-.55-.12-.83-.11-1.03-.04-1.91.76-1.95,1.8,0,.1,0,.19.01.29v5.37h-1.86v-9.05Z" style="fill:#fff;"/><path d="m109.38,27.84c-.25,1.64-1.85,2.77-3.9,2.77-2.63,0-4.27-1.76-4.27-4.6s1.64-4.68,4.19-4.68,4.08,1.72,4.08,4.47v.64h-6.39v.11c-.11,1.3.84,2.44,2.14,2.56.1,0,.2.01.29,0,.9.08,1.75-.43,2.09-1.27h1.76Zm-6.28-2.7h4.53c.07-1.2-.85-2.23-2.05-2.29-.06,0-.11,0-.17,0-1.27,0-2.3,1.01-2.31,2.28,0,0,0,.01,0,.02Z" style="fill:#fff;"/></g><g id="_Group_4"><path d="m37.83,8.73c1.45-.1,2.72.99,2.82,2.44.01.17,0,.35-.01.52,0,1.91-1.03,3-2.81,3h-2.16v-5.97h2.16Zm-1.23,5.12h1.12c1.03.06,1.92-.73,1.98-1.76,0-.13,0-.26-.02-.39.14-1.03-.58-1.98-1.61-2.12-.12-.02-.24-.02-.36-.01h-1.12v4.28Z" style="fill:#fff;"/><path d="m41.68,12.44c-.11-1.17.75-2.21,1.92-2.33,1.17-.11,2.21.75,2.33,1.92.01.14.01.27,0,.41.11,1.17-.74,2.22-1.92,2.33-1.17.11-2.22-.74-2.33-1.92-.01-.14-.01-.28,0-.41Zm3.33,0c0-.98-.44-1.55-1.21-1.55s-1.21.57-1.21,1.55.43,1.55,1.21,1.55c.77,0,1.21-.57,1.21-1.55h0Z" style="fill:#fff;"/><path d="m51.57,14.7h-.92l-.93-3.32h-.07l-.93,3.32h-.91l-1.24-4.5h.9l.81,3.44h.07l.93-3.44h.85l.93,3.44h.07l.8-3.44h.89l-1.24,4.5Z" style="fill:#fff;"/><path d="m53.85,10.19h.86v.72h.07c.23-.53.77-.85,1.34-.8.81-.06,1.51.54,1.57,1.35,0,.11,0,.22-.01.32v2.91h-.89v-2.69c0-.72-.31-1.08-.97-1.08-.57-.03-1.05.41-1.08.98,0,.05,0,.11,0,.16v2.63h-.89v-4.5Z" style="fill:#fff;"/><path d="m59.09,8.44h.89v6.26h-.89v-6.26Z" style="fill:#fff;"/><path d="m61.22,12.44c-.11-1.17.75-2.21,1.92-2.33,1.17-.11,2.21.75,2.33,1.92.01.14.01.27,0,.41.11,1.17-.74,2.22-1.92,2.33s-2.22-.74-2.33-1.92c-.01-.14-.01-.28,0-.41Zm3.33,0c0-.98-.44-1.55-1.21-1.55s-1.21.57-1.21,1.55.43,1.55,1.21,1.55c.77,0,1.21-.57,1.21-1.55Z" style="fill:#fff;"/><path d="m66.4,13.42c0-.81.6-1.28,1.67-1.34l1.22-.07v-.39c0-.48-.31-.74-.92-.74-.5,0-.84.18-.94.5h-.86c.09-.77.82-1.27,1.84-1.27,1.13,0,1.77.56,1.77,1.51v3.08h-.86v-.63h-.07c-.29.46-.81.73-1.35.71-.75.08-1.42-.47-1.49-1.21,0-.04,0-.09,0-.14Zm2.89-.38v-.38l-1.1.07c-.62.04-.9.25-.9.65s.35.64.83.64c.58.06,1.1-.37,1.16-.95,0-.01,0-.02,0-.04Z" style="fill:#fff;"/><path d="m71.35,12.44c0-1.42.73-2.32,1.87-2.32.57-.03,1.11.28,1.38.79h.07v-2.47h.89v6.26h-.85v-.71h-.07c-.29.5-.83.81-1.41.79-1.15,0-1.87-.9-1.87-2.33Zm.92,0c0,.96.45,1.53,1.2,1.53s1.21-.58,1.21-1.53-.47-1.53-1.21-1.53-1.2.58-1.2,1.53h0Z" style="fill:#fff;"/><path d="m79.23,12.44c-.11-1.17.75-2.21,1.92-2.33s2.21.75,2.33,1.92c.01.14.01.27,0,.41.11,1.17-.74,2.22-1.92,2.33-1.17.11-2.22-.74-2.33-1.92-.01-.14-.01-.28,0-.41Zm3.33,0c0-.98-.44-1.55-1.21-1.55s-1.21.57-1.21,1.55.43,1.55,1.21,1.55c.77,0,1.21-.57,1.21-1.55Z" style="fill:#fff;"/><path d="m84.67,10.19h.86v.72h.07c.23-.53.77-.85,1.34-.8.81-.06,1.51.54,1.57,1.35,0,.11,0,.22-.01.32v2.91h-.89v-2.69c0-.72-.31-1.08-.97-1.08-.57-.03-1.05.41-1.08.98,0,.05,0,.11,0,.16v2.63h-.89v-4.5Z" style="fill:#fff;"/><path d="m93.52,9.07v1.14h.98v.75h-.98v2.32c0,.47.19.68.64.68.11,0,.23,0,.34-.02v.74c-.16.03-.32.04-.48.05-.99,0-1.38-.35-1.38-1.22v-2.54h-.71v-.75h.71v-1.14h.89Z" style="fill:#fff;"/><path d="m95.7,8.44h.88v2.48h.07c.24-.53.79-.85,1.37-.81.82-.04,1.52.58,1.56,1.4,0,.09,0,.19-.01.28v2.91h-.89v-2.69c0-.72-.33-1.08-.96-1.08-.58-.05-1.09.38-1.13.96,0,.06,0,.12,0,.18v2.63h-.89v-6.26Z" style="fill:#fff;"/><path d="m104.76,13.48c-.25.85-1.07,1.4-1.95,1.3-1.13.03-2.07-.86-2.1-1.99,0-.11,0-.22.02-.33-.15-1.14.65-2.18,1.78-2.33.1-.01.2-.02.29-.02,1.25,0,2.01.86,2.01,2.27v.31h-3.18v.05c-.06.66.43,1.23,1.09,1.29.04,0,.08,0,.11,0,.43.05.86-.16,1.07-.55h.86Zm-3.13-1.45h2.27c.04-.6-.4-1.12-1-1.16-.04,0-.07,0-.11,0-.64,0-1.16.5-1.17,1.14,0,0,0,.02,0,.03h0Z" style="fill:#fff;"/></g></g></svg>