<svg width="485" height="113" viewBox="0 0 485 113" fill="none" xmlns="http://www.w3.org/2000/svg">
<path d="M0 110.305V14.297H43.8837C52.6704 14.297 60.216 15.7366 66.5702 18.5662C72.9244 21.3958 77.839 25.5161 81.314 30.8278C84.7889 36.1892 86.5264 42.4938 86.5264 49.8408C86.5264 57.1879 84.7889 63.3435 81.314 68.6552C77.839 73.967 72.9244 78.0376 66.5702 80.9169C60.216 83.7961 52.6208 85.2357 43.8837 85.2357H15.0912L27.1543 73.4209V110.305H0ZM27.1543 76.3001L15.0912 63.8399H42.2456C47.9048 63.8399 52.1244 62.5989 54.954 60.1168C57.7339 57.6347 59.1239 54.2093 59.1239 49.8408C59.1239 45.4723 57.7339 41.8981 54.954 39.416C52.174 36.9338 47.9544 35.6928 42.2456 35.6928H15.0912L27.1543 23.2326V76.3001Z" fill="#121E44"/>
<path d="M112.936 27.7004C108.171 27.7004 104.348 26.36 101.419 23.729C98.4906 21.0979 97.0509 17.7719 97.0509 13.8502C97.0509 9.92845 98.4906 6.60243 101.419 3.9714C104.348 1.34036 108.171 0 112.936 0C117.702 0 121.525 1.24107 124.453 3.77282C127.382 6.30458 128.822 9.53131 128.822 13.453C128.822 17.3748 127.382 20.9987 124.503 23.6794C121.624 26.3601 117.752 27.75 112.887 27.75L112.936 27.7004ZM99.8805 110.305V35.941H125.943V110.305H99.8805Z" fill="#121E44"/>
<path d="M142.821 110.305V8.53837H168.883V110.305H142.821Z" fill="#121E44"/>
<path d="M185.761 110.305V8.53837H211.824V110.305H185.761Z" fill="#121E44"/>
<path d="M277.798 112.241C270.203 112.241 263.204 111.05 256.75 108.617C250.297 106.185 244.737 102.759 240.021 98.242C235.305 93.7742 231.631 88.4624 229 82.4061C226.369 76.3497 225.029 69.648 225.029 62.301C225.029 54.9539 226.369 48.3019 229 42.1959C231.631 36.0899 235.354 30.8278 240.021 26.36C244.737 21.8922 250.297 18.4172 256.75 15.9848C263.204 13.5523 270.203 12.3609 277.798 12.3609C286.684 12.3609 294.627 13.8998 301.577 17.0272C308.577 20.1547 314.385 24.6225 319.051 30.4803L301.776 46.1176C298.648 42.4441 295.272 39.6641 291.549 37.7281C287.826 35.792 283.706 34.8488 279.139 34.8488C275.217 34.8488 271.593 35.4942 268.317 36.7849C265.04 38.0756 262.211 39.9123 259.878 42.3448C257.544 44.7773 255.708 47.6565 254.367 51.0322C253.027 54.4079 252.382 58.1807 252.382 62.301C252.382 66.4213 253.027 70.1445 254.367 73.5698C255.708 76.9454 257.544 79.8743 259.878 82.2572C262.211 84.6896 265.04 86.5264 268.317 87.8171C271.593 89.1078 275.217 89.7531 279.139 89.7531C283.706 89.7531 287.826 88.8099 291.549 86.8739C295.272 84.9378 298.648 82.1579 301.776 78.4843L319.051 94.1217C314.385 99.8802 308.577 104.348 301.577 107.475C294.578 110.603 286.635 112.191 277.798 112.191V112.241Z" fill="#FDB735"/>
<path d="M353.105 111.546C347.148 111.546 342.134 110.553 338.014 108.518C333.894 106.483 330.766 103.752 328.632 100.277C326.497 96.8024 325.405 92.9303 325.405 88.6114C325.405 84.0443 326.547 80.0729 328.88 76.7469C331.213 73.4209 334.787 70.8395 339.652 69.0524C344.517 67.2652 350.772 66.3717 358.467 66.3717H376.04V79.9736H362.041C357.821 79.9736 354.893 80.6687 353.205 82.009C351.517 83.399 350.673 85.2357 350.673 87.5193C350.673 89.8028 351.517 91.6396 353.304 93.0295C355.041 94.4195 357.424 95.0649 360.452 95.0649C363.282 95.0649 365.863 94.3699 368.197 92.9303C370.53 91.4907 372.267 89.356 373.359 86.4272L376.934 96.0081C375.544 101.121 372.863 104.993 368.892 107.624C364.92 110.255 359.658 111.546 353.205 111.546H353.105ZM375.047 110.305V96.4549L373.26 93.0295V67.5134C373.26 63.3931 372.019 60.216 369.487 57.9821C366.956 55.7482 362.984 54.6065 357.474 54.6065C353.9 54.6065 350.276 55.2022 346.652 56.3439C342.978 57.4857 339.901 59.0743 337.319 61.06L328.532 43.3873C332.752 40.657 337.816 38.5224 343.673 36.9834C349.581 35.4942 355.439 34.6999 361.296 34.6999C373.359 34.6999 382.742 37.4799 389.344 42.9902C395.996 48.5005 399.273 57.1879 399.273 69.0027V110.305H374.998H375.047Z" fill="#FDB735"/>
<path d="M415.803 110.305V8.53837H441.866V110.305H415.803Z" fill="#FDB735"/>
<path d="M458.744 110.305V8.53837H484.806V110.305H458.744Z" fill="#FDB735"/>
</svg>
