<svg width="440" height="941" viewBox="0 0 440 941" fill="none" xmlns="http://www.w3.org/2000/svg">
<path d="M129.262 13.6112C104.41 -0.00947707 74.2916 -6.31617 64.4987 8.61843C63.8459 10.1075 63.3671 11.5966 63.193 13.1733L62.7142 14.4872C62.3661 15.4945 61.9743 16.5456 61.5826 17.5529L61.1909 18.4726C60.2769 20.7939 59.2323 23.1151 58.1007 25.3487L57.6655 26.3122L57.0561 27.4947L54.0095 32.9693C53.5307 33.8014 53.0084 34.6336 52.3555 35.5971L51.8333 36.3854C51.4851 36.9548 51.0934 37.5241 50.8322 37.8745L48.0902 41.6848C47.3068 42.6921 46.6974 43.7432 46.4363 44.444C46.3057 44.7067 46.1751 44.9695 46.0446 45.2323L45.8705 45.7141L45.7399 46.0206C45.7399 46.0206 45.7399 46.152 45.6964 46.1958C45.5223 46.6338 45.4352 47.1156 45.1741 48.2543L45 49.393V50.7069C45 50.7069 45 51.101 45 51.3638V51.758V52.2835C45.1306 53.8602 45.4788 55.5683 46.1751 57.7143L46.5669 58.634C46.9586 59.6414 47.4373 60.6487 48.0902 61.9188L48.6125 62.8823L51.1804 66.7364C51.9203 67.7437 52.7473 68.8386 53.3566 69.4518L54.6188 70.8095L54.8799 71.2912C56.3162 72.8679 57.9266 74.4884 59.7981 76.284L60.1028 76.5468C60.1028 76.5468 60.2769 76.722 60.3639 76.8096L60.8427 77.2037C60.8427 77.2037 61.0603 77.2913 61.1474 77.3789L61.0603 77.4665L71.1579 85.4813L71.8543 86.0068C72.5507 86.5324 73.247 87.0142 73.7258 87.3207L76.4678 89.1602C77.3383 89.7733 78.2523 90.3427 79.1228 90.8682L89.9602 97.0436L90.9178 97.5253C91.4401 97.8319 91.9623 98.0947 93.1375 98.664C94.6608 99.4086 96.1842 100.153 97.2723 100.547C97.751 100.81 98.2298 101.029 98.8391 101.248C99.3179 101.511 99.7966 101.73 100.145 101.861L102.626 102.825C102.843 102.956 103.192 103.131 103.627 103.263L104.28 103.525C105.455 104.007 106.63 104.401 108.197 104.971L109.154 105.277C111.33 105.978 113.42 106.591 115.422 107.117L119.469 107.993C120.993 108.299 122.516 108.518 123.474 108.606L124.431 108.737C125.911 108.912 127.347 109 128.653 109H128.871L132.004 108.869C134.442 108.65 136.661 108.168 138.751 107.423L140.492 106.723L140.883 106.46C142.711 105.54 144.278 104.314 145.323 103.087L146.15 102.168C146.498 101.73 146.803 101.292 147.02 100.941L147.673 99.8903C148.021 99.2334 148.369 98.5326 148.369 98.3137L148.761 97.3939L149.327 95.9486C150.067 93.934 150.894 91.9632 151.677 90.1675L153.288 86.7952C153.462 86.401 153.636 86.0506 153.81 85.7003L155.551 82.3279C156.465 80.7075 157.379 79.087 158.815 76.7658L159.555 75.6709L160.121 74.8387C161.252 73.1307 162.558 71.4226 163.864 69.7145C165.605 68.5758 167.172 67.2181 168.347 65.4663L168.739 64.7655C175.528 49.0864 153.853 27.0568 129.001 13.436L129.262 13.6112ZM147.412 78.649L145.976 81.4082C145.671 81.9776 145.366 82.5907 145.236 82.8973L143.495 86.4448C142.581 88.547 141.71 90.6931 140.97 92.6639L138.881 96.7808C138.272 97.4815 137.488 98.0509 136.574 98.4888L133.092 99.54C132.44 99.6275 131.743 99.7151 130.916 99.8027H129.045C128 99.8903 126.869 99.8027 124.997 99.5837C123.909 99.4962 122.734 99.2772 121.515 99.0582L118.512 98.4012C116.51 97.8757 114.464 97.3063 112.027 96.518L111.156 96.2114C110.068 95.8173 109.024 95.4231 107.283 94.7661L102.452 92.7515L101.581 92.3135C100.232 91.7442 98.8826 91.0872 96.837 90.0799L88.3498 85.5251L86.1301 84.2112L84.2586 83.0725C83.4317 82.5907 82.6482 82.0651 81.9083 81.5834L79.3404 79.8753C78.7746 79.4812 78.2088 79.1308 77.2948 78.4738L68.1112 71.2474C67.8936 71.0284 67.6325 70.8095 67.2843 70.5467L66.0221 69.3642C64.4117 67.8313 62.9319 66.3422 62.0614 65.4663C62.0614 65.3787 61.9743 65.3349 61.9308 65.2473L60.8862 63.9334C60.1028 63.0575 59.45 62.1815 58.7536 61.2618L57.3608 59.2034L56.3162 57.3639C55.881 56.5756 55.5328 55.8311 55.054 54.4734C54.7058 53.466 54.5317 52.5025 54.4012 51.9332V50.8383L54.4882 49.6558L54.967 48.4295C55.0975 48.0791 55.3152 47.7287 55.6198 47.3345L58.4054 43.3928C58.9277 42.6921 59.3629 41.9914 59.6676 41.5096L60.3639 40.4585C60.9733 39.5388 61.5391 38.619 62.0179 37.7869L64.2811 33.8452C64.4987 33.4072 64.7599 32.9693 64.8034 32.8379L66.5443 29.4218C66.849 28.7648 67.0666 28.1955 67.3713 27.5385C74.1175 39.1884 88.5675 51.1886 104.323 59.8165C119.339 68.0503 136.226 73.6124 149.37 73.6124C149.762 73.6124 150.067 73.5248 150.459 73.5248C149.545 75.0139 148.674 76.503 147.542 78.5614L147.412 78.649ZM160.687 60.8239C155.594 67.3057 133.354 65.2911 108.632 51.758C83.5187 38.0059 69.6781 19.9179 72.5507 13.0419C74.2481 10.5017 78.3829 9.14399 84.2151 9.14399C94.1821 9.14399 109.024 13.0857 124.866 21.8012C149.588 35.3343 163.385 53.0281 160.687 60.8677V60.8239Z" fill="#EEE7E1"/>
<path d="M117.205 50.1804C118.066 48.5977 116.251 45.9463 113.151 44.2583C110.051 42.5703 106.84 42.4849 105.979 44.0676C105.118 45.6502 106.933 48.3016 110.033 49.9896C113.133 51.6776 116.344 51.763 117.205 50.1804Z" fill="#EEE7E1"/>
<path d="M121.316 47.8176C119.84 45.6743 117.397 43.6221 114.447 42.0261C111.496 40.43 108.454 39.5635 105.826 39.4723L102 34C106.426 34.1368 111.589 35.6417 116.475 38.2866C121.362 40.9316 125.465 44.3518 128 48L121.27 47.8176H121.316Z" fill="#EEE7E1"/>
<path d="M132.759 47.8235C126.13 37.9412 111.237 29.6471 99.5726 29.2941L96 24C111.151 24.4412 130.434 35.2059 139 48L132.716 47.8235H132.759Z" fill="#EEE7E1"/>
<path d="M145.753 47.8263C140.712 40.4444 132.482 33.3665 122.659 27.9821C112.835 22.5977 102.452 19.4713 93.5761 19.2107L90 14C100.556 14.304 112.835 17.9949 124.555 24.4215C136.274 30.848 146.011 39.2286 152 48L145.709 47.8263H145.753Z" fill="#EEE7E1"/>
<path d="M62.4088 193H105.591C108.581 193 111 190.764 111 188C111 185.236 108.581 183 105.591 183H62.4088C59.4186 183 57 185.236 57 188C57 190.764 59.4186 193 62.4088 193Z" fill="#EEE7E1"/>
<path d="M62.4088 215H105.591C108.581 215 111 212.541 111 209.5C111 206.459 108.581 204 105.591 204H62.4088C59.4186 204 57 206.459 57 209.5C57 212.541 59.4186 215 62.4088 215Z" fill="#EEE7E1"/>
<path d="M129.319 137.434L121.682 131.535L119.18 129.584V122H25.8642V129.584L23.3624 131.535L15.7251 137.434C10.8091 142.49 8.04389 149.275 8 156.327V251.769C8 257.668 9.66792 266.183 13.2671 270.884C13.2671 270.884 20.1143 279 30.9997 279H114C124.886 279 131.733 270.884 131.733 270.884C135.288 266.183 136.956 257.712 137 251.769V156.327C137 149.231 134.235 142.445 129.275 137.434H129.319ZM126.246 237.444H45.3964V172.116H126.246V237.444ZM126.246 159.21V161.206H40.6121C37.6274 161.206 35.2133 163.645 35.2133 166.661V242.899C35.2133 245.915 37.6274 248.354 40.6121 248.354H126.246V251.813C126.246 260.816 119.004 268.134 110.094 268.134H34.95C26.0398 268.134 18.7975 260.816 18.7975 251.813V156.371C18.7975 150.162 22.2212 144.53 27.7516 141.78C28.0589 141.603 28.3222 141.425 28.6295 141.248L35.3889 136.015H109.743L116.502 141.248C116.766 141.47 117.073 141.647 117.38 141.78C122.867 144.53 126.334 150.207 126.334 156.371V159.254L126.246 159.21Z" fill="#EEE7E1"/>
<path d="M19.0393 112C18.9981 111.436 17.8458 97.6424 31.6742 75L39 79.9883C27.0647 99.5944 27.7232 111.046 27.7232 111.132L19.0393 112Z" fill="#EEE7E1"/>
<path d="M37.5039 101L33.5835 79.6808L12 83.5532L19.4961 72.8723L41.0796 69L45 90.3191L37.5039 101Z" fill="#EEE7E1"/>
<path d="M168 167H328V244" stroke="#FDB735" stroke-width="20"/>
<path d="M233 342H109V509" stroke="#FDB735" stroke-width="20"/>
<path d="M337.479 411.629C307.008 411.629 282.24 387.136 282.24 357.003C282.24 326.87 307.008 302.377 337.479 302.377C367.951 302.377 392.719 326.87 392.719 357.003C392.719 387.136 367.951 411.629 337.479 411.629ZM337.479 319.834C316.73 319.834 299.892 336.538 299.892 357.003C299.892 377.467 316.785 394.172 337.479 394.172C358.174 394.172 375.066 377.467 375.066 357.003C375.066 336.538 358.174 319.834 337.479 319.834Z" fill="#EEE7E1"/>
<path d="M329.446 445.946C307.161 445.946 285.904 438.808 267.946 425.343L261.239 420.314L267.08 414.204C267.838 413.393 268.811 412.041 268.811 410.094C268.811 406.795 266.107 404.092 262.807 404.092C260.914 404.092 259.508 405.011 258.697 405.768L252.584 411.608L247.554 404.849C234.086 386.95 227 365.698 227 343.473C227 286.964 272.976 241 329.5 241C386.024 241 432 286.964 432 343.473C432 365.428 425.022 386.463 411.933 404.254L407.281 410.581L401.223 405.606C396.733 401.929 391.541 405.606 391.541 410.094C391.541 411.392 392.082 412.69 393.109 413.879L398.248 419.882L392.028 424.694C373.908 438.646 352.326 446 329.608 446L329.446 445.946ZM282.442 417.178C311.001 435.509 349.243 435.239 377.532 416.475C376.828 414.42 376.45 412.257 376.45 410.04C376.45 398.468 385.861 389.113 397.383 389.113C399.438 389.113 401.439 389.437 403.387 390.086C412.257 376.08 416.909 360.128 416.909 343.473C416.909 295.238 377.64 255.979 329.392 255.979C281.144 255.979 241.875 295.238 241.875 343.473C241.875 360.236 246.58 376.297 255.613 390.356C257.885 389.545 260.265 389.113 262.699 389.113C274.274 389.113 283.632 398.522 283.632 410.04C283.632 412.473 283.199 414.907 282.388 417.178H282.442Z" fill="#EEE7E1"/>
<path d="M289.854 281.947L273.154 296.054L289.316 315.2L306.016 301.092L289.854 281.947Z" fill="#EEE7E1"/>
<path d="M397.733 310.362L388.017 315.126L397.041 333.545L406.758 328.782L397.733 310.362Z" fill="#EEE7E1"/>
<path d="M333.212 268.006L312.928 271.532L317.196 297.467L337.479 293.941L333.212 268.006ZM325.176 287.628C322.571 287.628 320.465 285.467 320.465 282.793C320.465 280.12 322.571 277.959 325.176 277.959C327.781 277.959 329.887 280.12 329.887 282.793C329.887 285.467 327.781 287.628 325.176 287.628Z" fill="#EEE7E1"/>
<path d="M227 553H288V708" stroke="#FDB735" stroke-width="20"/>
<path d="M121.154 700.154C106.512 700.154 94.6152 688.257 94.6152 673.615C94.6152 658.973 106.512 647.077 121.154 647.077C135.796 647.077 147.692 658.973 147.692 673.615C147.692 688.257 135.796 700.154 121.154 700.154ZM121.154 661.109C114.239 661.109 108.647 666.701 108.647 673.615C108.647 680.53 114.239 686.122 121.154 686.122C128.068 686.122 133.66 680.53 133.66 673.615C133.66 666.701 128.068 661.109 121.154 661.109Z" fill="#EEE7E1"/>
<path d="M94.5953 650.538L66.9229 623.343L71.9449 618.408C84.9612 605.666 102.18 598.615 120.577 598.615C138.974 598.615 156.192 605.666 169.209 618.408L174.231 623.343L146.558 650.538L141.536 645.603C130.313 634.574 110.789 634.624 99.6173 645.603L94.5953 650.538ZM120.577 623.142C129.903 623.142 138.718 625.962 146.148 631.199L153.835 623.645C134.823 609.242 106.331 609.242 87.3185 623.645L95.0053 631.199C102.385 625.962 111.25 623.142 120.577 623.142Z" fill="#EEE7E1"/>
<path d="M61.8565 617.077L34.6152 589.794L39.559 584.843C84.255 540.129 156.949 540.129 201.595 584.843L206.538 589.794L179.297 617.077L174.353 612.126C160.026 597.777 140.907 589.845 120.577 589.845C100.247 589.845 81.1273 597.777 66.8004 612.126L61.8565 617.077ZM120.577 575.9C142.319 575.9 162.851 583.529 179.095 597.524L186.612 589.996C148.878 557.055 92.2256 557.055 54.4913 589.996L62.0079 597.524C78.3023 583.529 98.8341 575.9 120.526 575.9H120.577Z" fill="#EEE7E1"/>
<path d="M27.3533 583.615L0 556.388L4.9641 551.447C35.7113 520.841 76.5386 504 120 504C163.461 504 204.289 520.841 235.036 551.447L240 556.388L212.647 583.615L207.683 578.674C184.28 555.379 153.128 542.522 120 542.522C86.8721 542.522 55.7197 555.379 32.3174 578.674L27.3533 583.615ZM120 528.606C154.496 528.606 187.117 541.161 212.495 564.052L220.042 556.539C192.638 531.631 157.332 518.017 120 518.017C82.6677 518.017 47.3617 531.631 19.9577 556.539L27.5052 564.052C52.9337 541.161 85.5044 528.606 120 528.606Z" fill="#EEE7E1"/>
<path d="M342.648 701.052H238.21C228.197 701.052 220 709.2 220 719.269V922.195C220 932.211 228.145 940.411 238.21 940.411H342.648C352.661 940.411 360.858 932.263 360.858 922.195V719.217C360.858 709.2 352.713 701 342.648 701V701.052ZM315.41 715.428L311.571 722.331H269.443L265.552 715.428H315.358H315.41ZM346.487 922.195C346.487 924.323 344.775 926.035 342.648 926.035H238.21C236.083 926.035 234.371 924.323 234.371 922.195V719.217C234.371 717.089 236.083 715.376 238.21 715.376H249.105L261.038 736.603H319.924L331.804 715.376H342.648C344.775 715.376 346.487 717.089 346.487 719.217V922.143V922.195Z" fill="#EEE7E1"/>
<path d="M315.203 900.085H265.345V914.462H315.203V900.085Z" fill="#EEE7E1"/>
<path d="M437.123 849.899L432.817 840.713C430.949 836.821 429.964 832.721 429.964 828.569V803.086C430.171 772.984 405.735 748.177 375.592 747.865C375.54 747.865 375.436 747.865 375.384 747.865C375.333 747.865 375.229 747.865 375.177 747.865C344.982 748.177 320.598 772.984 320.805 803.086V828.569C320.805 832.669 319.871 836.821 317.952 840.713L313.645 849.899C310.377 856.439 310.74 864.379 314.631 870.503C318.419 876.627 324.904 880.312 332.323 880.468H351.26C356.448 888.408 365.423 893.495 375.281 893.495C375.281 893.495 375.333 893.495 375.384 893.495C375.436 893.495 375.436 893.495 375.488 893.495C385.346 893.495 394.321 888.408 399.509 880.468H418.446C425.813 880.312 432.35 876.627 436.138 870.503C439.977 864.327 440.392 856.439 437.123 849.899Z" fill="#121E44"/>
<path d="M375.281 883.582C367.136 883.582 359.873 878.236 357.382 870.503H332.272C328.484 870.451 325.008 868.479 323.037 865.261C320.961 861.992 320.754 857.788 322.518 854.31L326.928 844.917C329.418 839.831 330.715 834.225 330.715 828.568V803.086C330.56 778.33 350.534 758.037 375.281 757.778C380.521 757.778 385.606 758.66 390.483 760.477C393.336 761.515 394.789 764.732 393.751 767.587C392.921 769.767 390.846 771.22 388.563 771.22C387.888 771.22 387.266 771.116 386.643 770.856C383.012 769.507 379.224 768.832 375.385 768.832C366.254 768.936 357.745 772.517 351.364 779.005C344.983 785.492 341.558 794.055 341.61 803.086V828.568C341.61 835.834 339.95 843.204 336.733 849.743L332.323 859.137L418.187 859.449L413.725 849.691C410.509 843.152 408.849 835.834 408.849 828.517C408.849 825.454 411.339 823.015 414.348 823.015C417.357 823.015 419.847 825.506 419.847 828.517C419.847 834.122 421.145 839.779 423.635 844.813L428.252 854.207C429.964 857.684 429.757 861.888 427.682 865.157C425.71 868.375 422.078 870.399 418.291 870.399H393.18C391.261 876.42 386.384 881.142 380.21 882.803C378.602 883.218 376.942 883.478 375.281 883.478V883.582ZM369.938 870.503C371.338 871.904 373.258 872.683 375.333 872.735C377.357 872.735 379.276 871.904 380.677 870.503H369.938Z" fill="#EEE7E1"/>
<path d="M351.157 811.805C348.096 811.805 345.657 809.314 345.657 806.304C345.605 793.536 352.609 782.015 363.867 776.098C364.646 775.683 365.528 775.475 366.41 775.475C368.485 775.475 370.353 776.617 371.338 778.485C372.013 779.783 372.168 781.288 371.702 782.689C371.235 784.091 370.301 785.232 368.952 785.959C361.325 789.955 356.656 797.74 356.708 806.355C356.708 809.417 354.217 811.909 351.208 811.909L351.157 811.805Z" fill="#EEE7E1"/>
<path d="M410.665 816.372C422.871 816.372 432.766 806.474 432.766 794.263C432.766 782.053 422.871 772.154 410.665 772.154C398.458 772.154 388.563 782.053 388.563 794.263C388.563 806.474 398.458 816.372 410.665 816.372Z" fill="#EEE7E1"/>
</svg>
