<svg width="1280" height="295" viewBox="0 0 1280 295" fill="none" xmlns="http://www.w3.org/2000/svg">
<path d="M120 145L324 145" stroke="#FDB735" stroke-width="20"/>
<path d="M493 215H753" stroke="#FDB735" stroke-width="20"/>
<path d="M894 145L1060 145" stroke="#FDB735" stroke-width="20"/>
<path d="M121.262 13.6112C96.4102 -0.00947707 66.2916 -6.31617 56.4987 8.61843C55.8459 10.1075 55.3671 11.5966 55.193 13.1733L54.7142 14.4872C54.3661 15.4945 53.9743 16.5456 53.5826 17.5529L53.1909 18.4726C52.2769 20.7939 51.2323 23.1151 50.1007 25.3487L49.6655 26.3122L49.0561 27.4947L46.0095 32.9693C45.5307 33.8014 45.0084 34.6336 44.3555 35.5971L43.8333 36.3854C43.4851 36.9548 43.0934 37.5241 42.8322 37.8745L40.0902 41.6848C39.3068 42.6921 38.6974 43.7432 38.4363 44.444C38.3057 44.7067 38.1751 44.9695 38.0446 45.2323L37.8705 45.7141L37.7399 46.0206C37.7399 46.0206 37.7399 46.152 37.6964 46.1958C37.5223 46.6338 37.4352 47.1156 37.1741 48.2543L37 49.393V50.7069C37 50.7069 37 51.101 37 51.3638V51.758V52.2835C37.1306 53.8602 37.4788 55.5683 38.1751 57.7143L38.5669 58.634C38.9586 59.6414 39.4373 60.6487 40.0902 61.9188L40.6125 62.8823L43.1804 66.7364C43.9203 67.7437 44.7473 68.8386 45.3566 69.4518L46.6188 70.8095L46.8799 71.2912C48.3162 72.8679 49.9266 74.4884 51.7981 76.284L52.1028 76.5468C52.1028 76.5468 52.2769 76.722 52.3639 76.8096L52.8427 77.2037C52.8427 77.2037 53.0603 77.2913 53.1474 77.3789L53.0603 77.4665L63.1579 85.4813L63.8543 86.0068C64.5507 86.5324 65.247 87.0142 65.7258 87.3207L68.4678 89.1602C69.3383 89.7733 70.2523 90.3427 71.1228 90.8682L81.9602 97.0436L82.9178 97.5253C83.4401 97.8319 83.9623 98.0947 85.1375 98.664C86.6608 99.4086 88.1842 100.153 89.2723 100.547C89.751 100.81 90.2298 101.029 90.8391 101.248C91.3179 101.511 91.7966 101.73 92.1448 101.861L94.6257 102.825C94.8433 102.956 95.1915 103.131 95.6268 103.263L96.2796 103.525C97.4548 104.007 98.6299 104.401 100.197 104.971L101.154 105.277C103.33 105.978 105.42 106.591 107.422 107.117L111.469 107.993C112.993 108.299 114.516 108.518 115.474 108.606L116.431 108.737C117.911 108.912 119.347 109 120.653 109H120.871L124.004 108.869C126.442 108.65 128.661 108.168 130.751 107.423L132.492 106.723L132.883 106.46C134.711 105.54 136.278 104.314 137.323 103.087L138.15 102.168C138.498 101.73 138.803 101.292 139.02 100.941L139.673 99.8903C140.021 99.2334 140.369 98.5326 140.369 98.3137L140.761 97.3939L141.327 95.9486C142.067 93.934 142.894 91.9632 143.677 90.1675L145.288 86.7952C145.462 86.401 145.636 86.0506 145.81 85.7003L147.551 82.3279C148.465 80.7075 149.379 79.087 150.815 76.7658L151.555 75.6709L152.121 74.8387C153.252 73.1307 154.558 71.4226 155.864 69.7145C157.605 68.5758 159.172 67.2181 160.347 65.4663L160.739 64.7655C167.528 49.0864 145.853 27.0568 121.001 13.436L121.262 13.6112ZM139.412 78.649L137.976 81.4082C137.671 81.9776 137.366 82.5907 137.236 82.8973L135.495 86.4448C134.581 88.547 133.71 90.6931 132.97 92.6639L130.881 96.7808C130.272 97.4815 129.488 98.0509 128.574 98.4888L125.092 99.54C124.44 99.6275 123.743 99.7151 122.916 99.8027H121.045C120 99.8903 118.869 99.8027 116.997 99.5838C115.909 99.4962 114.734 99.2772 113.515 99.0582L110.512 98.4012C108.51 97.8757 106.464 97.3063 104.027 96.518L103.156 96.2114C102.068 95.8172 101.024 95.4231 99.2828 94.7661L94.4516 92.7515L93.5811 92.3135C92.2319 91.7442 90.8827 91.0872 88.837 90.0799L80.3499 85.5251L78.1301 84.2112L76.2586 83.0725C75.4317 82.5907 74.6482 82.0651 73.9083 81.5834L71.3404 79.8753C70.7746 79.4812 70.2088 79.1308 69.2948 78.4738L60.1112 71.2474C59.8936 71.0284 59.6324 70.8095 59.2843 70.5467L58.0221 69.3642C56.4117 67.8313 54.9319 66.3422 54.0614 65.4663C54.0614 65.3787 53.9743 65.3349 53.9308 65.2473L52.8862 63.9334C52.1028 63.0575 51.45 62.1815 50.7536 61.2618L49.3608 59.2034L48.3162 57.3639C47.881 56.5756 47.5328 55.8311 47.054 54.4734C46.7058 53.466 46.5317 52.5025 46.4012 51.9332V50.8383L46.4882 49.6558L46.967 48.4294C47.0975 48.0791 47.3152 47.7287 47.6198 47.3345L50.4054 43.3929C50.9277 42.6921 51.3629 41.9914 51.6676 41.5096L52.3639 40.4585C52.9733 39.5388 53.5391 38.619 54.0179 37.7869L56.2811 33.8452C56.4987 33.4072 56.7599 32.9693 56.8034 32.8379L58.5443 29.4218C58.849 28.7648 59.0666 28.1955 59.3713 27.5385C66.1175 39.1884 80.5675 51.1886 96.3231 59.8165C111.339 68.0503 128.226 73.6124 141.37 73.6124C141.762 73.6124 142.067 73.5248 142.459 73.5248C141.545 75.0139 140.674 76.503 139.542 78.5614L139.412 78.649ZM152.687 60.8239C147.594 67.3057 125.354 65.2911 100.632 51.758C75.5187 38.0059 61.6781 19.9179 64.5507 13.0419C66.2481 10.5017 70.3829 9.14399 76.2151 9.14399C86.1821 9.14399 101.024 13.0857 116.866 21.8012C141.588 35.3343 155.385 53.0281 152.687 60.8677V60.8239Z" fill="#EEE7E1"/>
<path d="M109.205 50.1802C110.066 48.5976 108.251 45.9462 105.151 44.2582C102.051 42.5702 98.8399 42.4848 97.9787 44.0674C97.1176 45.6501 98.9326 48.3015 102.033 49.9895C105.133 51.6775 108.344 51.7629 109.205 50.1802Z" fill="#EEE7E1"/>
<path d="M113.316 47.8176C111.84 45.6743 109.397 43.6221 106.447 42.0261C103.496 40.43 100.454 39.5635 97.8262 39.4723L94 34C98.4255 34.1368 103.589 35.6417 108.475 38.2866C113.362 40.9316 117.465 44.3518 120 48L113.27 47.8176H113.316Z" fill="#EEE7E1"/>
<path d="M124.759 47.8235C118.13 37.9412 103.237 29.6471 91.5726 29.2941L88 24C103.151 24.4412 122.434 35.2059 131 48L124.716 47.8235H124.759Z" fill="#EEE7E1"/>
<path d="M137.753 47.8263C132.712 40.4444 124.482 33.3665 114.659 27.9821C104.835 22.5977 94.4517 19.4713 85.5761 19.2107L82 14C92.5559 14.304 104.835 17.9949 116.555 24.4215C128.274 30.848 138.011 39.2286 144 48L137.709 47.8263H137.753Z" fill="#EEE7E1"/>
<path d="M54.4088 193H97.5912C100.581 193 103 190.764 103 188C103 185.236 100.581 183 97.5912 183H54.4088C51.4186 183 49 185.236 49 188C49 190.764 51.4186 193 54.4088 193Z" fill="#EEE7E1"/>
<path d="M54.4088 215H97.5912C100.581 215 103 212.541 103 209.5C103 206.459 100.581 204 97.5912 204H54.4088C51.4186 204 49 206.459 49 209.5C49 212.541 51.4186 215 54.4088 215Z" fill="#EEE7E1"/>
<path d="M121.319 137.434L113.682 131.535L111.18 129.584V122H17.8642V129.584L15.3624 131.535L7.72507 137.434C2.80911 142.49 0.0438925 149.275 0 156.327V251.769C0 257.668 1.66792 266.183 5.2671 270.884C5.2671 270.884 12.1143 279 22.9997 279H106C116.886 279 123.733 270.884 123.733 270.884C127.288 266.183 128.956 257.712 129 251.769V156.327C129 149.231 126.235 142.445 121.275 137.434H121.319ZM118.246 237.444H37.3964V172.116H118.246V237.444ZM118.246 159.21V161.206H32.6121C29.6274 161.206 27.2133 163.645 27.2133 166.661V242.899C27.2133 245.915 29.6274 248.354 32.6121 248.354H118.246V251.813C118.246 260.816 111.004 268.134 102.094 268.134H26.95C18.0398 268.134 10.7975 260.816 10.7975 251.813V156.371C10.7975 150.162 14.2212 144.53 19.7516 141.78C20.0589 141.603 20.3222 141.425 20.6295 141.248L27.3889 136.015H101.743L108.502 141.248C108.766 141.47 109.073 141.647 109.38 141.78C114.867 144.53 118.334 150.207 118.334 156.371V159.254L118.246 159.21Z" fill="#EEE7E1"/>
<path d="M11.0393 112C10.9981 111.436 9.84579 97.6424 23.6742 75L31 79.9883C19.0647 99.5944 19.7232 111.046 19.7232 111.132L11.0393 112Z" fill="#EEE7E1"/>
<path d="M29.5039 101L25.5835 79.6808L4 83.5532L11.4961 72.8723L33.0796 69L37 90.3191L29.5039 101Z" fill="#EEE7E1"/>
<path d="M423.479 239.629C393.008 239.629 368.24 215.136 368.24 185.003C368.24 154.87 393.008 130.377 423.479 130.377C453.951 130.377 478.719 154.87 478.719 185.003C478.719 215.136 453.951 239.629 423.479 239.629ZM423.479 147.834C402.73 147.834 385.892 164.538 385.892 185.003C385.892 205.467 402.785 222.172 423.479 222.172C444.174 222.172 461.066 205.467 461.066 185.003C461.066 164.538 444.174 147.834 423.479 147.834Z" fill="#EEE7E1"/>
<path d="M415.446 273.946C393.161 273.946 371.904 266.808 353.946 253.343L347.239 248.314L353.08 242.204C353.838 241.393 354.811 240.041 354.811 238.094C354.811 234.795 352.107 232.092 348.807 232.092C346.914 232.092 345.508 233.011 344.697 233.768L338.584 239.608L333.554 232.849C320.086 214.95 313 193.698 313 171.473C313 114.964 358.976 69 415.5 69C472.024 69 518 114.964 518 171.473C518 193.428 511.022 214.463 497.933 232.254L493.281 238.581L487.223 233.606C482.733 229.929 477.541 233.606 477.541 238.094C477.541 239.392 478.082 240.69 479.109 241.879L484.248 247.882L478.028 252.694C459.908 266.646 438.326 274 415.608 274L415.446 273.946ZM368.442 245.178C397.001 263.509 435.243 263.239 463.532 244.475C462.828 242.42 462.45 240.257 462.45 238.04C462.45 226.468 471.862 217.113 483.383 217.113C485.438 217.113 487.439 217.437 489.387 218.086C498.257 204.08 502.909 188.128 502.909 171.473C502.909 123.238 463.64 83.9789 415.392 83.9789C367.144 83.9789 327.875 123.238 327.875 171.473C327.875 188.236 332.58 204.297 341.613 218.356C343.885 217.545 346.265 217.113 348.699 217.113C360.274 217.113 369.632 226.522 369.632 238.04C369.632 240.473 369.199 242.907 368.388 245.178H368.442Z" fill="#EEE7E1"/>
<path d="M375.854 109.947L359.154 124.054L375.316 143.2L392.016 129.092L375.854 109.947Z" fill="#EEE7E1"/>
<path d="M483.733 138.362L474.017 143.126L483.041 161.545L492.758 156.782L483.733 138.362Z" fill="#EEE7E1"/>
<path d="M419.212 96.0061L398.928 99.5323L403.196 125.467L423.479 121.941L419.212 96.0061ZM411.176 115.628C408.571 115.628 406.465 113.467 406.465 110.794C406.465 108.12 408.571 105.959 411.176 105.959C413.781 105.959 415.887 108.12 415.887 110.794C415.887 113.467 413.781 115.628 411.176 115.628Z" fill="#EEE7E1"/>
<path d="M790.154 286.154C775.512 286.154 763.615 274.257 763.615 259.615C763.615 244.973 775.512 233.077 790.154 233.077C804.796 233.077 816.692 244.973 816.692 259.615C816.692 274.257 804.796 286.154 790.154 286.154ZM790.154 247.109C783.239 247.109 777.647 252.701 777.647 259.615C777.647 266.53 783.239 272.122 790.154 272.122C797.068 272.122 802.66 266.53 802.66 259.615C802.66 252.701 797.068 247.109 790.154 247.109Z" fill="#EEE7E1"/>
<path d="M763.595 236.539L735.923 209.343L740.945 204.408C753.961 191.666 771.18 184.615 789.577 184.615C807.974 184.615 825.192 191.666 838.209 204.408L843.231 209.343L815.558 236.539L810.536 231.603C799.313 220.574 779.789 220.624 768.617 231.603L763.595 236.539ZM789.577 209.142C798.903 209.142 807.718 211.962 815.148 217.2L822.835 209.645C803.823 195.242 775.331 195.242 756.318 209.645L764.005 217.2C771.385 211.962 780.25 209.142 789.577 209.142Z" fill="#EEE7E1"/>
<path d="M730.857 203.077L703.615 175.794L708.559 170.843C753.255 126.129 825.949 126.129 870.595 170.843L875.538 175.794L848.297 203.077L843.353 198.126C829.026 183.777 809.907 175.845 789.577 175.845C769.247 175.845 750.127 183.777 735.8 198.126L730.857 203.077ZM789.577 161.9C811.319 161.9 831.851 169.529 848.095 183.524L855.612 175.996C817.878 143.055 761.226 143.055 723.491 175.996L731.008 183.524C747.302 169.529 767.834 161.9 789.526 161.9H789.577Z" fill="#EEE7E1"/>
<path d="M696.353 169.615L669 142.388L673.964 137.447C704.711 106.841 745.539 90 789 90C832.461 90 873.289 106.841 904.036 137.447L909 142.388L881.647 169.615L876.683 164.674C853.28 141.379 822.128 128.522 789 128.522C755.872 128.522 724.72 141.379 701.317 164.674L696.353 169.615ZM789 114.606C823.496 114.606 856.117 127.161 881.495 150.052L889.042 142.539C861.638 117.631 826.332 104.017 789 104.017C751.668 104.017 716.362 117.631 688.958 142.539L696.505 150.052C721.934 127.161 754.504 114.606 789 114.606Z" fill="#EEE7E1"/>
<path d="M1182.65 55.0519H1078.21C1068.2 55.0519 1060 63.2001 1060 73.2685V276.195C1060 286.211 1068.15 294.411 1078.21 294.411H1182.65C1192.66 294.411 1200.86 286.263 1200.86 276.195V73.2166C1200.86 63.2001 1192.71 55 1182.65 55V55.0519ZM1155.41 69.428L1151.57 76.3306H1109.44L1105.55 69.428H1155.36H1155.41ZM1186.49 276.195C1186.49 278.323 1184.77 280.035 1182.65 280.035H1078.21C1076.08 280.035 1074.37 278.323 1074.37 276.195V73.2166C1074.37 71.0888 1076.08 69.3761 1078.21 69.3761H1089.11L1101.04 90.6029H1159.92L1171.8 69.3761H1182.65C1184.77 69.3761 1186.49 71.0888 1186.49 73.2166V276.143V276.195Z" fill="#EEE7E1"/>
<path d="M1155.2 254.085H1105.34V268.462H1155.2V254.085Z" fill="#EEE7E1"/>
<path d="M1277.12 203.899L1272.82 194.713C1270.95 190.821 1269.96 186.721 1269.96 182.569V157.086C1270.17 126.984 1245.74 102.177 1215.59 101.865C1215.54 101.865 1215.44 101.865 1215.38 101.865C1215.33 101.865 1215.23 101.865 1215.18 101.865C1184.98 102.177 1160.6 126.984 1160.81 157.086V182.569C1160.81 186.669 1159.87 190.821 1157.95 194.713L1153.65 203.899C1150.38 210.439 1150.74 218.379 1154.63 224.503C1158.42 230.627 1164.9 234.312 1172.32 234.468H1191.26C1196.45 242.408 1205.42 247.495 1215.28 247.495C1215.28 247.495 1215.33 247.495 1215.38 247.495C1215.44 247.495 1215.44 247.495 1215.49 247.495C1225.35 247.495 1234.32 242.408 1239.51 234.468H1258.45C1265.81 234.312 1272.35 230.627 1276.14 224.503C1279.98 218.327 1280.39 210.439 1277.12 203.899Z" fill="#121E44"/>
<path d="M1215.28 237.582C1207.14 237.582 1199.87 232.236 1197.38 224.503H1172.27C1168.48 224.451 1165.01 222.479 1163.04 219.261C1160.96 215.992 1160.75 211.788 1162.52 208.31L1166.93 198.917C1169.42 193.831 1170.72 188.225 1170.72 182.568V157.086C1170.56 132.33 1190.53 112.037 1215.28 111.778C1220.52 111.778 1225.61 112.66 1230.48 114.477C1233.34 115.515 1234.79 118.732 1233.75 121.587C1232.92 123.767 1230.85 125.22 1228.56 125.22C1227.89 125.22 1227.27 125.116 1226.64 124.856C1223.01 123.507 1219.22 122.832 1215.39 122.832C1206.25 122.936 1197.75 126.517 1191.36 133.005C1184.98 139.492 1181.56 148.055 1181.61 157.086V182.568C1181.61 189.834 1179.95 197.204 1176.73 203.743L1172.32 213.137L1258.19 213.449L1253.73 203.691C1250.51 197.152 1248.85 189.834 1248.85 182.517C1248.85 179.454 1251.34 177.015 1254.35 177.015C1257.36 177.015 1259.85 179.506 1259.85 182.517C1259.85 188.122 1261.14 193.779 1263.63 198.813L1268.25 208.207C1269.96 211.684 1269.76 215.888 1267.68 219.157C1265.71 222.375 1262.08 224.399 1258.29 224.399H1233.18C1231.26 230.42 1226.38 235.142 1220.21 236.803C1218.6 237.218 1216.94 237.478 1215.28 237.478V237.582ZM1209.94 224.503C1211.34 225.904 1213.26 226.683 1215.33 226.735C1217.36 226.735 1219.28 225.904 1220.68 224.503H1209.94Z" fill="#EEE7E1"/>
<path d="M1191.16 165.805C1188.1 165.805 1185.66 163.314 1185.66 160.304C1185.61 147.536 1192.61 136.015 1203.87 130.098C1204.65 129.683 1205.53 129.475 1206.41 129.475C1208.48 129.475 1210.35 130.617 1211.34 132.485C1212.01 133.783 1212.17 135.288 1211.7 136.689C1211.23 138.091 1210.3 139.232 1208.95 139.959C1201.33 143.955 1196.66 151.74 1196.71 160.355C1196.71 163.417 1194.22 165.909 1191.21 165.909L1191.16 165.805Z" fill="#EEE7E1"/>
<path d="M1250.66 170.372C1262.87 170.372 1272.77 160.474 1272.77 148.263C1272.77 136.053 1262.87 126.154 1250.66 126.154C1238.46 126.154 1228.56 136.053 1228.56 148.263C1228.56 160.474 1238.46 170.372 1250.66 170.372Z" fill="#EEE7E1"/>
</svg>
